<svg width="560" height="144" viewBox="0 0 560 144" fill="none" xmlns="http://www.w3.org/2000/svg">
<g filter="url(#filter0_b_516_334)">
<rect width="560" height="144" rx="24" fill="#20283E" fill-opacity="0.8"/>
<path d="M49.408 43.696V52H48.316V45.808L45.556 52H44.788L42.016 45.796V52H40.924V43.696H42.1L45.172 50.56L48.244 43.696H49.408ZM50.8519 48.688C50.8519 48.016 50.9879 47.428 51.2599 46.924C51.5319 46.412 51.9039 46.016 52.3759 45.736C52.8559 45.456 53.3879 45.316 53.9719 45.316C54.5479 45.316 55.0479 45.44 55.4719 45.688C55.8959 45.936 56.2119 46.248 56.4199 46.624V45.424H57.5239V52H56.4199V50.776C56.2039 51.16 55.8799 51.48 55.4479 51.736C55.0239 51.984 54.5279 52.108 53.9599 52.108C53.3759 52.108 52.8479 51.964 52.3759 51.676C51.9039 51.388 51.5319 50.984 51.2599 50.464C50.9879 49.944 50.8519 49.352 50.8519 48.688ZM56.4199 48.7C56.4199 48.204 56.3199 47.772 56.1199 47.404C55.9199 47.036 55.6479 46.756 55.3039 46.564C54.9679 46.364 54.5959 46.264 54.1879 46.264C53.7799 46.264 53.4079 46.36 53.0719 46.552C52.7359 46.744 52.4679 47.024 52.2679 47.392C52.0679 47.76 51.9679 48.192 51.9679 48.688C51.9679 49.192 52.0679 49.632 52.2679 50.008C52.4679 50.376 52.7359 50.66 53.0719 50.86C53.4079 51.052 53.7799 51.148 54.1879 51.148C54.5959 51.148 54.9679 51.052 55.3039 50.86C55.6479 50.66 55.9199 50.376 56.1199 50.008C56.3199 49.632 56.4199 49.196 56.4199 48.7ZM59.9333 44.356C59.7253 44.356 59.5493 44.284 59.4053 44.14C59.2613 43.996 59.1893 43.82 59.1893 43.612C59.1893 43.404 59.2613 43.228 59.4053 43.084C59.5493 42.94 59.7253 42.868 59.9333 42.868C60.1333 42.868 60.3013 42.94 60.4373 43.084C60.5813 43.228 60.6533 43.404 60.6533 43.612C60.6533 43.82 60.5813 43.996 60.4373 44.14C60.3013 44.284 60.1333 44.356 59.9333 44.356ZM60.4613 45.424V52H59.3693V45.424H60.4613ZM63.4144 43.12V52H62.3224V43.12H63.4144ZM71.2756 48.46C71.2756 48.668 71.2636 48.888 71.2396 49.12H65.9836C66.0236 49.768 66.2436 50.276 66.6436 50.644C67.0516 51.004 67.5436 51.184 68.1196 51.184C68.5916 51.184 68.9836 51.076 69.2956 50.86C69.6156 50.636 69.8396 50.34 69.9676 49.972H71.1436C70.9676 50.604 70.6156 51.12 70.0876 51.52C69.5596 51.912 68.9036 52.108 68.1196 52.108C67.4956 52.108 66.9356 51.968 66.4396 51.688C65.9516 51.408 65.5676 51.012 65.2876 50.5C65.0076 49.98 64.8676 49.38 64.8676 48.7C64.8676 48.02 65.0036 47.424 65.2756 46.912C65.5476 46.4 65.9276 46.008 66.4156 45.736C66.9116 45.456 67.4796 45.316 68.1196 45.316C68.7436 45.316 69.2956 45.452 69.7756 45.724C70.2556 45.996 70.6236 46.372 70.8796 46.852C71.1436 47.324 71.2756 47.86 71.2756 48.46ZM70.1476 48.232C70.1476 47.816 70.0556 47.46 69.8716 47.164C69.6876 46.86 69.4356 46.632 69.1156 46.48C68.8036 46.32 68.4556 46.24 68.0716 46.24C67.5196 46.24 67.0476 46.416 66.6556 46.768C66.2716 47.12 66.0516 47.608 65.9956 48.232H70.1476ZM79.161 43.636V52H78.069V48.208H73.809V52H72.717V43.636H73.809V47.308H78.069V43.636H79.161ZM87.0256 48.46C87.0256 48.668 87.0136 48.888 86.9896 49.12H81.7336C81.7736 49.768 81.9936 50.276 82.3936 50.644C82.8016 51.004 83.2936 51.184 83.8696 51.184C84.3416 51.184 84.7336 51.076 85.0456 50.86C85.3656 50.636 85.5896 50.34 85.7176 49.972H86.8936C86.7176 50.604 86.3656 51.12 85.8376 51.52C85.3096 51.912 84.6536 52.108 83.8696 52.108C83.2456 52.108 82.6856 51.968 82.1896 51.688C81.7016 51.408 81.3176 51.012 81.0376 50.5C80.7576 49.98 80.6176 49.38 80.6176 48.7C80.6176 48.02 80.7536 47.424 81.0256 46.912C81.2976 46.4 81.6776 46.008 82.1656 45.736C82.6616 45.456 83.2296 45.316 83.8696 45.316C84.4936 45.316 85.0456 45.452 85.5256 45.724C86.0056 45.996 86.3736 46.372 86.6296 46.852C86.8936 47.324 87.0256 47.86 87.0256 48.46ZM85.8976 48.232C85.8976 47.816 85.8056 47.46 85.6216 47.164C85.4376 46.86 85.1856 46.632 84.8656 46.48C84.5536 46.32 84.2056 46.24 83.8216 46.24C83.2696 46.24 82.7976 46.416 82.4056 46.768C82.0216 47.12 81.8016 47.608 81.7456 48.232H85.8976ZM89.559 46.492C89.751 46.116 90.023 45.824 90.375 45.616C90.735 45.408 91.171 45.304 91.683 45.304V46.432H91.395C90.171 46.432 89.559 47.096 89.559 48.424V52H88.467V45.424H89.559V46.492ZM98.9435 48.46C98.9435 48.668 98.9315 48.888 98.9075 49.12H93.6515C93.6915 49.768 93.9115 50.276 94.3115 50.644C94.7195 51.004 95.2115 51.184 95.7875 51.184C96.2595 51.184 96.6515 51.076 96.9635 50.86C97.2835 50.636 97.5075 50.34 97.6355 49.972H98.8115C98.6355 50.604 98.2835 51.12 97.7555 51.52C97.2275 51.912 96.5715 52.108 95.7875 52.108C95.1635 52.108 94.6035 51.968 94.1075 51.688C93.6195 51.408 93.2355 51.012 92.9555 50.5C92.6755 49.98 92.5355 49.38 92.5355 48.7C92.5355 48.02 92.6715 47.424 92.9435 46.912C93.2155 46.4 93.5955 46.008 94.0835 45.736C94.5795 45.456 95.1475 45.316 95.7875 45.316C96.4115 45.316 96.9635 45.452 97.4435 45.724C97.9235 45.996 98.2915 46.372 98.5475 46.852C98.8115 47.324 98.9435 47.86 98.9435 48.46ZM97.8155 48.232C97.8155 47.816 97.7235 47.46 97.5395 47.164C97.3555 46.86 97.1035 46.632 96.7835 46.48C96.4715 46.32 96.1235 46.24 95.7395 46.24C95.1875 46.24 94.7155 46.416 94.3235 46.768C93.9395 47.12 93.7195 47.608 93.6635 48.232H97.8155ZM104.057 52L101.477 49.096V52H100.385V43.12H101.477V48.34L104.009 45.424H105.533L102.437 48.7L105.545 52H104.057ZM109.429 52.108C108.813 52.108 108.253 51.968 107.749 51.688C107.253 51.408 106.861 51.012 106.573 50.5C106.293 49.98 106.153 49.38 106.153 48.7C106.153 48.028 106.297 47.436 106.585 46.924C106.881 46.404 107.281 46.008 107.785 45.736C108.289 45.456 108.853 45.316 109.477 45.316C110.101 45.316 110.665 45.456 111.169 45.736C111.673 46.008 112.069 46.4 112.357 46.912C112.653 47.424 112.801 48.02 112.801 48.7C112.801 49.38 112.649 49.98 112.345 50.5C112.049 51.012 111.645 51.408 111.133 51.688C110.621 51.968 110.053 52.108 109.429 52.108ZM109.429 51.148C109.821 51.148 110.189 51.056 110.533 50.872C110.877 50.688 111.153 50.412 111.361 50.044C111.577 49.676 111.685 49.228 111.685 48.7C111.685 48.172 111.581 47.724 111.373 47.356C111.165 46.988 110.893 46.716 110.557 46.54C110.221 46.356 109.857 46.264 109.465 46.264C109.065 46.264 108.697 46.356 108.361 46.54C108.033 46.716 107.769 46.988 107.569 47.356C107.369 47.724 107.269 48.172 107.269 48.7C107.269 49.236 107.365 49.688 107.557 50.056C107.757 50.424 108.021 50.7 108.349 50.884C108.677 51.06 109.037 51.148 109.429 51.148Z" fill="#BEB7FB"/>
<path d="M122.024 53.48H123.068L127.124 43.58H126.08L122.024 53.48Z" fill="#8996A2"/>
<path d="M145.408 43.696V52H144.316V45.808L141.556 52H140.788L138.016 45.796V52H136.924V43.696H138.1L141.172 50.56L144.244 43.696H145.408ZM150.128 52.108C149.512 52.108 148.952 51.968 148.448 51.688C147.952 51.408 147.56 51.012 147.272 50.5C146.992 49.98 146.852 49.38 146.852 48.7C146.852 48.028 146.996 47.436 147.284 46.924C147.58 46.404 147.98 46.008 148.484 45.736C148.988 45.456 149.552 45.316 150.176 45.316C150.8 45.316 151.364 45.456 151.868 45.736C152.372 46.008 152.768 46.4 153.056 46.912C153.352 47.424 153.5 48.02 153.5 48.7C153.5 49.38 153.348 49.98 153.044 50.5C152.748 51.012 152.344 51.408 151.832 51.688C151.32 51.968 150.752 52.108 150.128 52.108ZM150.128 51.148C150.52 51.148 150.888 51.056 151.232 50.872C151.576 50.688 151.852 50.412 152.06 50.044C152.276 49.676 152.384 49.228 152.384 48.7C152.384 48.172 152.28 47.724 152.072 47.356C151.864 46.988 151.592 46.716 151.256 46.54C150.92 46.356 150.556 46.264 150.164 46.264C149.764 46.264 149.396 46.356 149.06 46.54C148.732 46.716 148.468 46.988 148.268 47.356C148.068 47.724 147.968 48.172 147.968 48.7C147.968 49.236 148.064 49.688 148.256 50.056C148.456 50.424 148.72 50.7 149.048 50.884C149.376 51.06 149.736 51.148 150.128 51.148ZM157.384 50.992L159.424 45.424H160.588L158.008 52H156.736L154.156 45.424H155.332L157.384 50.992ZM162.226 44.356C162.018 44.356 161.842 44.284 161.698 44.14C161.554 43.996 161.482 43.82 161.482 43.612C161.482 43.404 161.554 43.228 161.698 43.084C161.842 42.94 162.018 42.868 162.226 42.868C162.426 42.868 162.594 42.94 162.73 43.084C162.874 43.228 162.946 43.404 162.946 43.612C162.946 43.82 162.874 43.996 162.73 44.14C162.594 44.284 162.426 44.356 162.226 44.356ZM162.754 45.424V52H161.662V45.424H162.754ZM170.615 48.46C170.615 48.668 170.603 48.888 170.579 49.12H165.323C165.363 49.768 165.583 50.276 165.983 50.644C166.391 51.004 166.883 51.184 167.459 51.184C167.931 51.184 168.323 51.076 168.635 50.86C168.955 50.636 169.179 50.34 169.307 49.972H170.483C170.307 50.604 169.955 51.12 169.427 51.52C168.899 51.912 168.243 52.108 167.459 52.108C166.835 52.108 166.275 51.968 165.779 51.688C165.291 51.408 164.907 51.012 164.627 50.5C164.347 49.98 164.207 49.38 164.207 48.7C164.207 48.02 164.343 47.424 164.615 46.912C164.887 46.4 165.267 46.008 165.755 45.736C166.251 45.456 166.819 45.316 167.459 45.316C168.083 45.316 168.635 45.452 169.115 45.724C169.595 45.996 169.963 46.372 170.219 46.852C170.483 47.324 170.615 47.86 170.615 48.46ZM169.487 48.232C169.487 47.816 169.395 47.46 169.211 47.164C169.027 46.86 168.775 46.632 168.455 46.48C168.143 46.32 167.795 46.24 167.411 46.24C166.859 46.24 166.387 46.416 165.995 46.768C165.611 47.12 165.391 47.608 165.335 48.232H169.487ZM174.385 52.108C173.881 52.108 173.429 52.024 173.029 51.856C172.629 51.68 172.313 51.44 172.081 51.136C171.849 50.824 171.721 50.468 171.697 50.068H172.825C172.857 50.396 173.009 50.664 173.281 50.872C173.561 51.08 173.925 51.184 174.373 51.184C174.789 51.184 175.117 51.092 175.357 50.908C175.597 50.724 175.717 50.492 175.717 50.212C175.717 49.924 175.589 49.712 175.333 49.576C175.077 49.432 174.681 49.292 174.145 49.156C173.657 49.028 173.257 48.9 172.945 48.772C172.641 48.636 172.377 48.44 172.153 48.184C171.937 47.92 171.829 47.576 171.829 47.152C171.829 46.816 171.929 46.508 172.129 46.228C172.329 45.948 172.613 45.728 172.981 45.568C173.349 45.4 173.769 45.316 174.241 45.316C174.969 45.316 175.557 45.5 176.005 45.868C176.453 46.236 176.693 46.74 176.725 47.38H175.633C175.609 47.036 175.469 46.76 175.213 46.552C174.965 46.344 174.629 46.24 174.205 46.24C173.813 46.24 173.501 46.324 173.269 46.492C173.037 46.66 172.921 46.88 172.921 47.152C172.921 47.368 172.989 47.548 173.125 47.692C173.269 47.828 173.445 47.94 173.653 48.028C173.869 48.108 174.165 48.2 174.541 48.304C175.013 48.432 175.397 48.56 175.693 48.688C175.989 48.808 176.241 48.992 176.449 49.24C176.665 49.488 176.777 49.812 176.785 50.212C176.785 50.572 176.685 50.896 176.485 51.184C176.285 51.472 176.001 51.7 175.633 51.868C175.273 52.028 174.857 52.108 174.385 52.108Z" fill="#BEB7FB"/>
<path d="M56 72.664V76.28H46.688V82.008H53.824V85.56H46.688V95H42.208V72.664H56ZM63.0168 80.024C63.5928 79.0853 64.3394 78.3493 65.2568 77.816C66.1954 77.2827 67.2621 77.016 68.4568 77.016V81.72H67.2728C65.8648 81.72 64.7981 82.0507 64.0728 82.712C63.3688 83.3733 63.0168 84.5253 63.0168 86.168V95H58.5368V77.272H63.0168V80.024ZM73.1062 75.16C72.3169 75.16 71.6556 74.9147 71.1222 74.424C70.6102 73.912 70.3542 73.2827 70.3542 72.536C70.3542 71.7893 70.6102 71.1707 71.1222 70.68C71.6556 70.168 72.3169 69.912 73.1062 69.912C73.8956 69.912 74.5462 70.168 75.0582 70.68C75.5916 71.1707 75.8582 71.7893 75.8582 72.536C75.8582 73.2827 75.5916 73.912 75.0582 74.424C74.5462 74.9147 73.8956 75.16 73.1062 75.16ZM75.3142 77.272V95H70.8342V77.272H75.3142ZM95.5805 85.752C95.5805 86.392 95.5378 86.968 95.4525 87.48H82.4925C82.5992 88.76 83.0472 89.7627 83.8365 90.488C84.6258 91.2133 85.5965 91.576 86.7485 91.576C88.4125 91.576 89.5965 90.8613 90.3005 89.432H95.1325C94.6205 91.1387 93.6392 92.5467 92.1885 93.656C90.7378 94.744 88.9565 95.288 86.8445 95.288C85.1378 95.288 83.6018 94.9147 82.2365 94.168C80.8925 93.4 79.8365 92.3227 79.0685 90.936C78.3218 89.5493 77.9485 87.9493 77.9485 86.136C77.9485 84.3013 78.3218 82.6907 79.0685 81.304C79.8152 79.9173 80.8605 78.8507 82.2045 78.104C83.5485 77.3573 85.0952 76.984 86.8445 76.984C88.5298 76.984 90.0338 77.3467 91.3565 78.072C92.7005 78.7973 93.7352 79.832 94.4605 81.176C95.2072 82.4987 95.5805 84.024 95.5805 85.752ZM90.9405 84.472C90.9192 83.32 90.5032 82.4027 89.6925 81.72C88.8818 81.016 87.8898 80.664 86.7165 80.664C85.6072 80.664 84.6685 81.0053 83.9005 81.688C83.1538 82.3493 82.6952 83.2773 82.5245 84.472H90.9405ZM108.034 77.016C110.146 77.016 111.853 77.688 113.154 79.032C114.456 80.3547 115.106 82.2107 115.106 84.6V95H110.626V85.208C110.626 83.8 110.274 82.7227 109.57 81.976C108.866 81.208 107.906 80.824 106.69 80.824C105.453 80.824 104.472 81.208 103.746 81.976C103.042 82.7227 102.69 83.8 102.69 85.208V95H98.2105V77.272H102.69V79.48C103.288 78.712 104.045 78.1147 104.962 77.688C105.901 77.24 106.925 77.016 108.034 77.016ZM117.575 86.072C117.575 84.28 117.927 82.6907 118.631 81.304C119.356 79.9173 120.337 78.8507 121.575 78.104C122.812 77.3573 124.188 76.984 125.703 76.984C126.855 76.984 127.953 77.24 128.999 77.752C130.044 78.2427 130.876 78.904 131.495 79.736V71.32H136.039V95H131.495V92.376C130.94 93.2507 130.161 93.9547 129.159 94.488C128.156 95.0213 126.993 95.288 125.671 95.288C124.177 95.288 122.812 94.904 121.575 94.136C120.337 93.368 119.356 92.2907 118.631 90.904C117.927 89.496 117.575 87.8853 117.575 86.072ZM131.527 86.136C131.527 85.048 131.313 84.12 130.887 83.352C130.46 82.5627 129.884 81.9653 129.159 81.56C128.433 81.1333 127.655 80.92 126.823 80.92C125.991 80.92 125.223 81.1227 124.519 81.528C123.815 81.9333 123.239 82.5307 122.791 83.32C122.364 84.088 122.151 85.0053 122.151 86.072C122.151 87.1387 122.364 88.0773 122.791 88.888C123.239 89.6773 123.815 90.2853 124.519 90.712C125.244 91.1387 126.012 91.352 126.823 91.352C127.655 91.352 128.433 91.1493 129.159 90.744C129.884 90.3173 130.46 89.72 130.887 88.952C131.313 88.1627 131.527 87.224 131.527 86.136ZM146.558 95.288C145.108 95.288 143.806 95.032 142.654 94.52C141.502 93.9867 140.585 93.272 139.902 92.376C139.241 91.48 138.878 90.488 138.814 89.4H143.326C143.412 90.0827 143.742 90.648 144.318 91.096C144.916 91.544 145.652 91.768 146.526 91.768C147.38 91.768 148.041 91.5973 148.51 91.256C149.001 90.9147 149.246 90.4773 149.246 89.944C149.246 89.368 148.948 88.9413 148.35 88.664C147.774 88.3653 146.846 88.0453 145.566 87.704C144.244 87.384 143.156 87.0533 142.302 86.712C141.47 86.3707 140.745 85.848 140.126 85.144C139.529 84.44 139.23 83.4907 139.23 82.296C139.23 81.3147 139.508 80.4187 140.062 79.608C140.638 78.7973 141.449 78.1573 142.494 77.688C143.561 77.2187 144.809 76.984 146.238 76.984C148.35 76.984 150.036 77.5173 151.294 78.584C152.553 79.6293 153.246 81.048 153.374 82.84H149.086C149.022 82.136 148.724 81.5813 148.19 81.176C147.678 80.7493 146.985 80.536 146.11 80.536C145.3 80.536 144.67 80.6853 144.222 80.984C143.796 81.2827 143.582 81.6987 143.582 82.232C143.582 82.8293 143.881 83.288 144.478 83.608C145.076 83.9067 146.004 84.216 147.262 84.536C148.542 84.856 149.598 85.1867 150.43 85.528C151.262 85.8693 151.977 86.4027 152.574 87.128C153.193 87.832 153.513 88.7707 153.534 89.944C153.534 90.968 153.246 91.8853 152.67 92.696C152.116 93.5067 151.305 94.1467 150.238 94.616C149.193 95.064 147.966 95.288 146.558 95.288Z" fill="#EBEEF5"/>
</g>
<defs>
<filter id="filter0_b_516_334" x="-24" y="-24" width="608" height="192" filterUnits="userSpaceOnUse" color-interpolation-filters="sRGB">
<feFlood flood-opacity="0" result="BackgroundImageFix"/>
<feGaussianBlur in="BackgroundImageFix" stdDeviation="12"/>
<feComposite in2="SourceAlpha" operator="in" result="effect1_backgroundBlur_516_334"/>
<feBlend mode="normal" in="SourceGraphic" in2="effect1_backgroundBlur_516_334" result="shape"/>
</filter>
</defs>
</svg>
