<svg width="560" height="144" viewBox="0 0 560 144" fill="none" xmlns="http://www.w3.org/2000/svg">
<g filter="url(#filter0_b_516_334)">
<rect width="560" height="144" rx="24" fill="#20283E" fill-opacity="0.8"/>
<path d="M49.408 43.696V52H48.316V45.808L45.556 52H44.788L42.016 45.796V52H40.924V43.696H42.1L45.172 50.56L48.244 43.696H49.408ZM50.8519 48.688C50.8519 48.016 50.9879 47.428 51.2599 46.924C51.5319 46.412 51.9039 46.016 52.3759 45.736C52.8559 45.456 53.3879 45.316 53.9719 45.316C54.5479 45.316 55.0479 45.44 55.4719 45.688C55.8959 45.936 56.2119 46.248 56.4199 46.624V45.424H57.5239V52H56.4199V50.776C56.2039 51.16 55.8799 51.48 55.4479 51.736C55.0239 51.984 54.5279 52.108 53.9599 52.108C53.3759 52.108 52.8479 51.964 52.3759 51.676C51.9039 51.388 51.5319 50.984 51.2599 50.464C50.9879 49.944 50.8519 49.352 50.8519 48.688ZM56.4199 48.7C56.4199 48.204 56.3199 47.772 56.1199 47.404C55.9199 47.036 55.6479 46.756 55.3039 46.564C54.9679 46.364 54.5959 46.264 54.1879 46.264C53.7799 46.264 53.4079 46.36 53.0719 46.552C52.7359 46.744 52.4679 47.024 52.2679 47.392C52.0679 47.76 51.9679 48.192 51.9679 48.688C51.9679 49.192 52.0679 49.632 52.2679 50.008C52.4679 50.376 52.7359 50.66 53.0719 50.86C53.4079 51.052 53.7799 51.148 54.1879 51.148C54.5959 51.148 54.9679 51.052 55.3039 50.86C55.6479 50.66 55.9199 50.376 56.1199 50.008C56.3199 49.632 56.4199 49.196 56.4199 48.7ZM59.9333 44.356C59.7253 44.356 59.5493 44.284 59.4053 44.14C59.2613 43.996 59.1893 43.82 59.1893 43.612C59.1893 43.404 59.2613 43.228 59.4053 43.084C59.5493 42.94 59.7253 42.868 59.9333 42.868C60.1333 42.868 60.3013 42.94 60.4373 43.084C60.5813 43.228 60.6533 43.404 60.6533 43.612C60.6533 43.82 60.5813 43.996 60.4373 44.14C60.3013 44.284 60.1333 44.356 59.9333 44.356ZM60.4613 45.424V52H59.3693V45.424H60.4613ZM63.4144 43.12V52H62.3224V43.12H63.4144ZM71.2756 48.46C71.2756 48.668 71.2636 48.888 71.2396 49.12H65.9836C66.0236 49.768 66.2436 50.276 66.6436 50.644C67.0516 51.004 67.5436 51.184 68.1196 51.184C68.5916 51.184 68.9836 51.076 69.2956 50.86C69.6156 50.636 69.8396 50.34 69.9676 49.972H71.1436C70.9676 50.604 70.6156 51.12 70.0876 51.52C69.5596 51.912 68.9036 52.108 68.1196 52.108C67.4956 52.108 66.9356 51.968 66.4396 51.688C65.9516 51.408 65.5676 51.012 65.2876 50.5C65.0076 49.98 64.8676 49.38 64.8676 48.7C64.8676 48.02 65.0036 47.424 65.2756 46.912C65.5476 46.4 65.9276 46.008 66.4156 45.736C66.9116 45.456 67.4796 45.316 68.1196 45.316C68.7436 45.316 69.2956 45.452 69.7756 45.724C70.2556 45.996 70.6236 46.372 70.8796 46.852C71.1436 47.324 71.2756 47.86 71.2756 48.46ZM70.1476 48.232C70.1476 47.816 70.0556 47.46 69.8716 47.164C69.6876 46.86 69.4356 46.632 69.1156 46.48C68.8036 46.32 68.4556 46.24 68.0716 46.24C67.5196 46.24 67.0476 46.416 66.6556 46.768C66.2716 47.12 66.0516 47.608 65.9956 48.232H70.1476ZM79.161 43.636V52H78.069V48.208H73.809V52H72.717V43.636H73.809V47.308H78.069V43.636H79.161ZM87.0256 48.46C87.0256 48.668 87.0136 48.888 86.9896 49.12H81.7336C81.7736 49.768 81.9936 50.276 82.3936 50.644C82.8016 51.004 83.2936 51.184 83.8696 51.184C84.3416 51.184 84.7336 51.076 85.0456 50.86C85.3656 50.636 85.5896 50.34 85.7176 49.972H86.8936C86.7176 50.604 86.3656 51.12 85.8376 51.52C85.3096 51.912 84.6536 52.108 83.8696 52.108C83.2456 52.108 82.6856 51.968 82.1896 51.688C81.7016 51.408 81.3176 51.012 81.0376 50.5C80.7576 49.98 80.6176 49.38 80.6176 48.7C80.6176 48.02 80.7536 47.424 81.0256 46.912C81.2976 46.4 81.6776 46.008 82.1656 45.736C82.6616 45.456 83.2296 45.316 83.8696 45.316C84.4936 45.316 85.0456 45.452 85.5256 45.724C86.0056 45.996 86.3736 46.372 86.6296 46.852C86.8936 47.324 87.0256 47.86 87.0256 48.46ZM85.8976 48.232C85.8976 47.816 85.8056 47.46 85.6216 47.164C85.4376 46.86 85.1856 46.632 84.8656 46.48C84.5536 46.32 84.2056 46.24 83.8216 46.24C83.2696 46.24 82.7976 46.416 82.4056 46.768C82.0216 47.12 81.8016 47.608 81.7456 48.232H85.8976ZM89.559 46.492C89.751 46.116 90.023 45.824 90.375 45.616C90.735 45.408 91.171 45.304 91.683 45.304V46.432H91.395C90.171 46.432 89.559 47.096 89.559 48.424V52H88.467V45.424H89.559V46.492ZM98.9435 48.46C98.9435 48.668 98.9315 48.888 98.9075 49.12H93.6515C93.6915 49.768 93.9115 50.276 94.3115 50.644C94.7195 51.004 95.2115 51.184 95.7875 51.184C96.2595 51.184 96.6515 51.076 96.9635 50.86C97.2835 50.636 97.5075 50.34 97.6355 49.972H98.8115C98.6355 50.604 98.2835 51.12 97.7555 51.52C97.2275 51.912 96.5715 52.108 95.7875 52.108C95.1635 52.108 94.6035 51.968 94.1075 51.688C93.6195 51.408 93.2355 51.012 92.9555 50.5C92.6755 49.98 92.5355 49.38 92.5355 48.7C92.5355 48.02 92.6715 47.424 92.9435 46.912C93.2155 46.4 93.5955 46.008 94.0835 45.736C94.5795 45.456 95.1475 45.316 95.7875 45.316C96.4115 45.316 96.9635 45.452 97.4435 45.724C97.9235 45.996 98.2915 46.372 98.5475 46.852C98.8115 47.324 98.9435 47.86 98.9435 48.46ZM97.8155 48.232C97.8155 47.816 97.7235 47.46 97.5395 47.164C97.3555 46.86 97.1035 46.632 96.7835 46.48C96.4715 46.32 96.1235 46.24 95.7395 46.24C95.1875 46.24 94.7155 46.416 94.3235 46.768C93.9395 47.12 93.7195 47.608 93.6635 48.232H97.8155ZM104.057 52L101.477 49.096V52H100.385V43.12H101.477V48.34L104.009 45.424H105.533L102.437 48.7L105.545 52H104.057ZM109.429 52.108C108.813 52.108 108.253 51.968 107.749 51.688C107.253 51.408 106.861 51.012 106.573 50.5C106.293 49.98 106.153 49.38 106.153 48.7C106.153 48.028 106.297 47.436 106.585 46.924C106.881 46.404 107.281 46.008 107.785 45.736C108.289 45.456 108.853 45.316 109.477 45.316C110.101 45.316 110.665 45.456 111.169 45.736C111.673 46.008 112.069 46.4 112.357 46.912C112.653 47.424 112.801 48.02 112.801 48.7C112.801 49.38 112.649 49.98 112.345 50.5C112.049 51.012 111.645 51.408 111.133 51.688C110.621 51.968 110.053 52.108 109.429 52.108ZM109.429 51.148C109.821 51.148 110.189 51.056 110.533 50.872C110.877 50.688 111.153 50.412 111.361 50.044C111.577 49.676 111.685 49.228 111.685 48.7C111.685 48.172 111.581 47.724 111.373 47.356C111.165 46.988 110.893 46.716 110.557 46.54C110.221 46.356 109.857 46.264 109.465 46.264C109.065 46.264 108.697 46.356 108.361 46.54C108.033 46.716 107.769 46.988 107.569 47.356C107.369 47.724 107.269 48.172 107.269 48.7C107.269 49.236 107.365 49.688 107.557 50.056C107.757 50.424 108.021 50.7 108.349 50.884C108.677 51.06 109.037 51.148 109.429 51.148Z" fill="#BEB7FB"/>
<path d="M122.024 53.48H123.068L127.124 43.58H126.08L122.024 53.48Z" fill="#8996A2"/>
<path d="M145.408 43.696V52H144.316V45.808L141.556 52H140.788L138.016 45.796V52H136.924V43.696H138.1L141.172 50.56L144.244 43.696H145.408ZM150.128 52.108C149.512 52.108 148.952 51.968 148.448 51.688C147.952 51.408 147.56 51.012 147.272 50.5C146.992 49.98 146.852 49.38 146.852 48.7C146.852 48.028 146.996 47.436 147.284 46.924C147.58 46.404 147.98 46.008 148.484 45.736C148.988 45.456 149.552 45.316 150.176 45.316C150.8 45.316 151.364 45.456 151.868 45.736C152.372 46.008 152.768 46.4 153.056 46.912C153.352 47.424 153.5 48.02 153.5 48.7C153.5 49.38 153.348 49.98 153.044 50.5C152.748 51.012 152.344 51.408 151.832 51.688C151.32 51.968 150.752 52.108 150.128 52.108ZM150.128 51.148C150.52 51.148 150.888 51.056 151.232 50.872C151.576 50.688 151.852 50.412 152.06 50.044C152.276 49.676 152.384 49.228 152.384 48.7C152.384 48.172 152.28 47.724 152.072 47.356C151.864 46.988 151.592 46.716 151.256 46.54C150.92 46.356 150.556 46.264 150.164 46.264C149.764 46.264 149.396 46.356 149.06 46.54C148.732 46.716 148.468 46.988 148.268 47.356C148.068 47.724 147.968 48.172 147.968 48.7C147.968 49.236 148.064 49.688 148.256 50.056C148.456 50.424 148.72 50.7 149.048 50.884C149.376 51.06 149.736 51.148 150.128 51.148ZM157.384 50.992L159.424 45.424H160.588L158.008 52H156.736L154.156 45.424H155.332L157.384 50.992ZM162.226 44.356C162.018 44.356 161.842 44.284 161.698 44.14C161.554 43.996 161.482 43.82 161.482 43.612C161.482 43.404 161.554 43.228 161.698 43.084C161.842 42.94 162.018 42.868 162.226 42.868C162.426 42.868 162.594 42.94 162.73 43.084C162.874 43.228 162.946 43.404 162.946 43.612C162.946 43.82 162.874 43.996 162.73 44.14C162.594 44.284 162.426 44.356 162.226 44.356ZM162.754 45.424V52H161.662V45.424H162.754ZM170.615 48.46C170.615 48.668 170.603 48.888 170.579 49.12H165.323C165.363 49.768 165.583 50.276 165.983 50.644C166.391 51.004 166.883 51.184 167.459 51.184C167.931 51.184 168.323 51.076 168.635 50.86C168.955 50.636 169.179 50.34 169.307 49.972H170.483C170.307 50.604 169.955 51.12 169.427 51.52C168.899 51.912 168.243 52.108 167.459 52.108C166.835 52.108 166.275 51.968 165.779 51.688C165.291 51.408 164.907 51.012 164.627 50.5C164.347 49.98 164.207 49.38 164.207 48.7C164.207 48.02 164.343 47.424 164.615 46.912C164.887 46.4 165.267 46.008 165.755 45.736C166.251 45.456 166.819 45.316 167.459 45.316C168.083 45.316 168.635 45.452 169.115 45.724C169.595 45.996 169.963 46.372 170.219 46.852C170.483 47.324 170.615 47.86 170.615 48.46ZM169.487 48.232C169.487 47.816 169.395 47.46 169.211 47.164C169.027 46.86 168.775 46.632 168.455 46.48C168.143 46.32 167.795 46.24 167.411 46.24C166.859 46.24 166.387 46.416 165.995 46.768C165.611 47.12 165.391 47.608 165.335 48.232H169.487ZM174.385 52.108C173.881 52.108 173.429 52.024 173.029 51.856C172.629 51.68 172.313 51.44 172.081 51.136C171.849 50.824 171.721 50.468 171.697 50.068H172.825C172.857 50.396 173.009 50.664 173.281 50.872C173.561 51.08 173.925 51.184 174.373 51.184C174.789 51.184 175.117 51.092 175.357 50.908C175.597 50.724 175.717 50.492 175.717 50.212C175.717 49.924 175.589 49.712 175.333 49.576C175.077 49.432 174.681 49.292 174.145 49.156C173.657 49.028 173.257 48.9 172.945 48.772C172.641 48.636 172.377 48.44 172.153 48.184C171.937 47.92 171.829 47.576 171.829 47.152C171.829 46.816 171.929 46.508 172.129 46.228C172.329 45.948 172.613 45.728 172.981 45.568C173.349 45.4 173.769 45.316 174.241 45.316C174.969 45.316 175.557 45.5 176.005 45.868C176.453 46.236 176.693 46.74 176.725 47.38H175.633C175.609 47.036 175.469 46.76 175.213 46.552C174.965 46.344 174.629 46.24 174.205 46.24C173.813 46.24 173.501 46.324 173.269 46.492C173.037 46.66 172.921 46.88 172.921 47.152C172.921 47.368 172.989 47.548 173.125 47.692C173.269 47.828 173.445 47.94 173.653 48.028C173.869 48.108 174.165 48.2 174.541 48.304C175.013 48.432 175.397 48.56 175.693 48.688C175.989 48.808 176.241 48.992 176.449 49.24C176.665 49.488 176.777 49.812 176.785 50.212C176.785 50.572 176.685 50.896 176.485 51.184C176.285 51.472 176.001 51.7 175.633 51.868C175.273 52.028 174.857 52.108 174.385 52.108Z" fill="#BEB7FB"/>
<path d="M60.736 72.664V95H56.256V85.496H46.688V95H42.208V72.664H46.688V81.848H56.256V72.664H60.736ZM72.3775 95.288C70.6708 95.288 69.1348 94.9147 67.7695 94.168C66.4042 93.4 65.3268 92.3227 64.5375 90.936C63.7695 89.5493 63.3855 87.9493 63.3855 86.136C63.3855 84.3227 63.7802 82.7227 64.5695 81.336C65.3802 79.9493 66.4788 78.8827 67.8655 78.136C69.2522 77.368 70.7988 76.984 72.5055 76.984C74.2122 76.984 75.7588 77.368 77.1455 78.136C78.5322 78.8827 79.6202 79.9493 80.4095 81.336C81.2202 82.7227 81.6255 84.3227 81.6255 86.136C81.6255 87.9493 81.2095 89.5493 80.3775 90.936C79.5668 92.3227 78.4575 93.4 77.0495 94.168C75.6628 94.9147 74.1055 95.288 72.3775 95.288ZM72.3775 91.384C73.1882 91.384 73.9455 91.192 74.6495 90.808C75.3748 90.4027 75.9508 89.8053 76.3775 89.016C76.8042 88.2267 77.0175 87.2667 77.0175 86.136C77.0175 84.4507 76.5695 83.16 75.6735 82.264C74.7988 81.3467 73.7215 80.888 72.4415 80.888C71.1615 80.888 70.0842 81.3467 69.2095 82.264C68.3562 83.16 67.9295 84.4507 67.9295 86.136C67.9295 87.8213 68.3455 89.1227 69.1775 90.04C70.0308 90.936 71.0975 91.384 72.3775 91.384ZM108.848 77.272L103.664 95H98.8318L95.5998 82.616L92.3678 95H87.5038L82.2878 77.272H86.8318L89.9678 90.776L93.3598 77.272H98.0958L101.424 90.744L104.56 77.272H108.848ZM122.097 72.664V95H117.617V72.664H122.097ZM157.22 72.664V95H152.74V80.472L146.756 95H143.364L137.348 80.472V95H132.868V72.664H137.956L145.06 89.272L152.164 72.664H157.22ZM177.489 85.752C177.489 86.392 177.447 86.968 177.361 87.48H164.401C164.508 88.76 164.956 89.7627 165.745 90.488C166.535 91.2133 167.505 91.576 168.657 91.576C170.321 91.576 171.505 90.8613 172.209 89.432H177.041C176.529 91.1387 175.548 92.5467 174.097 93.656C172.647 94.744 170.865 95.288 168.753 95.288C167.047 95.288 165.511 94.9147 164.145 94.168C162.801 93.4 161.745 92.3227 160.977 90.936C160.231 89.5493 159.857 87.9493 159.857 86.136C159.857 84.3013 160.231 82.6907 160.977 81.304C161.724 79.9173 162.769 78.8507 164.113 78.104C165.457 77.3573 167.004 76.984 168.753 76.984C170.439 76.984 171.943 77.3467 173.265 78.072C174.609 78.7973 175.644 79.832 176.369 81.176C177.116 82.4987 177.489 84.024 177.489 85.752ZM172.849 84.472C172.828 83.32 172.412 82.4027 171.601 81.72C170.791 81.016 169.799 80.664 168.625 80.664C167.516 80.664 166.577 81.0053 165.809 81.688C165.063 82.3493 164.604 83.2773 164.433 84.472H172.849ZM185.335 80.952V89.528C185.335 90.1253 185.474 90.5627 185.751 90.84C186.05 91.096 186.541 91.224 187.223 91.224H189.303V95H186.487C182.711 95 180.823 93.1653 180.823 89.496V80.952H178.711V77.272H180.823V72.888H185.335V77.272H189.303V80.952H185.335ZM216.631 72.664L209.079 87.224V95H204.599V87.224L197.015 72.664H202.071L206.871 82.872L211.639 72.664H216.631ZM226.446 95.288C224.74 95.288 223.204 94.9147 221.838 94.168C220.473 93.4 219.396 92.3227 218.606 90.936C217.838 89.5493 217.454 87.9493 217.454 86.136C217.454 84.3227 217.849 82.7227 218.638 81.336C219.449 79.9493 220.548 78.8827 221.934 78.136C223.321 77.368 224.868 76.984 226.574 76.984C228.281 76.984 229.828 77.368 231.214 78.136C232.601 78.8827 233.689 79.9493 234.478 81.336C235.289 82.7227 235.694 84.3227 235.694 86.136C235.694 87.9493 235.278 89.5493 234.446 90.936C233.636 92.3227 232.526 93.4 231.118 94.168C229.732 94.9147 228.174 95.288 226.446 95.288ZM226.446 91.384C227.257 91.384 228.014 91.192 228.718 90.808C229.444 90.4027 230.02 89.8053 230.446 89.016C230.873 88.2267 231.086 87.2667 231.086 86.136C231.086 84.4507 230.638 83.16 229.742 82.264C228.868 81.3467 227.79 80.888 226.51 80.888C225.23 80.888 224.153 81.3467 223.278 82.264C222.425 83.16 221.998 84.4507 221.998 86.136C221.998 87.8213 222.414 89.1227 223.246 90.04C224.1 90.936 225.166 91.384 226.446 91.384ZM255.077 77.272V95H250.565V92.76C249.989 93.528 249.231 94.136 248.293 94.584C247.375 95.0107 246.373 95.224 245.285 95.224C243.898 95.224 242.671 94.936 241.605 94.36C240.538 93.7627 239.695 92.8987 239.077 91.768C238.479 90.616 238.181 89.2507 238.181 87.672V77.272H242.661V87.032C242.661 88.44 243.013 89.528 243.717 90.296C244.421 91.0427 245.381 91.416 246.597 91.416C247.834 91.416 248.805 91.0427 249.509 90.296C250.213 89.528 250.565 88.44 250.565 87.032V77.272H255.077ZM263.337 80.024C263.913 79.0853 264.659 78.3493 265.577 77.816C266.515 77.2827 267.582 77.016 268.777 77.016V81.72H267.593C266.185 81.72 265.118 82.0507 264.393 82.712C263.689 83.3733 263.337 84.5253 263.337 86.168V95H258.857V77.272H263.337V80.024ZM302.491 72.664V95H298.011V80.472L292.027 95H288.635L282.619 80.472V95H278.139V72.664H283.227L290.331 89.272L297.435 72.664H302.491ZM314.153 95.288C312.446 95.288 310.91 94.9147 309.545 94.168C308.179 93.4 307.102 92.3227 306.313 90.936C305.545 89.5493 305.161 87.9493 305.161 86.136C305.161 84.3227 305.555 82.7227 306.345 81.336C307.155 79.9493 308.254 78.8827 309.641 78.136C311.027 77.368 312.574 76.984 314.281 76.984C315.987 76.984 317.534 77.368 318.921 78.136C320.307 78.8827 321.395 79.9493 322.185 81.336C322.995 82.7227 323.401 84.3227 323.401 86.136C323.401 87.9493 322.985 89.5493 322.153 90.936C321.342 92.3227 320.233 93.4 318.825 94.168C317.438 94.9147 315.881 95.288 314.153 95.288ZM314.153 91.384C314.963 91.384 315.721 91.192 316.425 90.808C317.15 90.4027 317.726 89.8053 318.153 89.016C318.579 88.2267 318.793 87.2667 318.793 86.136C318.793 84.4507 318.345 83.16 317.449 82.264C316.574 81.3467 315.497 80.888 314.217 80.888C312.937 80.888 311.859 81.3467 310.985 82.264C310.131 83.16 309.705 84.4507 309.705 86.136C309.705 87.8213 310.121 89.1227 310.953 90.04C311.806 90.936 312.873 91.384 314.153 91.384ZM331.263 80.952V89.528C331.263 90.1253 331.401 90.5627 331.679 90.84C331.977 91.096 332.468 91.224 333.151 91.224H335.231V95H332.415C328.639 95 326.751 93.1653 326.751 89.496V80.952H324.639V77.272H326.751V72.888H331.263V77.272H335.231V80.952H331.263ZM347.797 77.016C349.141 77.016 350.336 77.3147 351.381 77.912C352.426 78.488 353.237 79.352 353.813 80.504C354.41 81.6347 354.709 83 354.709 84.6V95H350.229V85.208C350.229 83.8 349.877 82.7227 349.173 81.976C348.469 81.208 347.509 80.824 346.293 80.824C345.056 80.824 344.074 81.208 343.349 81.976C342.645 82.7227 342.293 83.8 342.293 85.208V95H337.813V71.32H342.293V79.48C342.869 78.712 343.637 78.1147 344.597 77.688C345.557 77.24 346.624 77.016 347.797 77.016ZM374.809 85.752C374.809 86.392 374.767 86.968 374.681 87.48H361.721C361.828 88.76 362.276 89.7627 363.065 90.488C363.855 91.2133 364.825 91.576 365.977 91.576C367.641 91.576 368.825 90.8613 369.529 89.432H374.361C373.849 91.1387 372.868 92.5467 371.417 93.656C369.967 94.744 368.185 95.288 366.073 95.288C364.367 95.288 362.831 94.9147 361.465 94.168C360.121 93.4 359.065 92.3227 358.297 90.936C357.551 89.5493 357.177 87.9493 357.177 86.136C357.177 84.3013 357.551 82.6907 358.297 81.304C359.044 79.9173 360.089 78.8507 361.433 78.104C362.777 77.3573 364.324 76.984 366.073 76.984C367.759 76.984 369.263 77.3467 370.585 78.072C371.929 78.7973 372.964 79.832 373.689 81.176C374.436 82.4987 374.809 84.024 374.809 85.752ZM370.169 84.472C370.148 83.32 369.732 82.4027 368.921 81.72C368.111 81.016 367.119 80.664 365.945 80.664C364.836 80.664 363.897 81.0053 363.129 81.688C362.383 82.3493 361.924 83.2773 361.753 84.472H370.169ZM381.919 80.024C382.495 79.0853 383.242 78.3493 384.159 77.816C385.098 77.2827 386.165 77.016 387.359 77.016V81.72H386.175C384.767 81.72 383.701 82.0507 382.975 82.712C382.271 83.3733 381.919 84.5253 381.919 86.168V95H377.439V77.272H381.919V80.024Z" fill="#EBEEF5"/>
</g>
<defs>
<filter id="filter0_b_516_334" x="-24" y="-24" width="608" height="192" filterUnits="userSpaceOnUse" color-interpolation-filters="sRGB">
<feFlood flood-opacity="0" result="BackgroundImageFix"/>
<feGaussianBlur in="BackgroundImageFix" stdDeviation="12"/>
<feComposite in2="SourceAlpha" operator="in" result="effect1_backgroundBlur_516_334"/>
<feBlend mode="normal" in="SourceGraphic" in2="effect1_backgroundBlur_516_334" result="shape"/>
</filter>
</defs>
</svg>
