<svg width="60" height="40" viewBox="0 0 60 40" fill="none" xmlns="http://www.w3.org/2000/svg">
<g filter="url(#filter0_b_1265_921)">
<rect width="60" height="40" rx="8" fill="black" fill-opacity="0.65"/>
<path d="M17.1533 14.34L18.3266 16.6867C18.4866 17.0133 18.9133 17.3267 19.2733 17.3867L21.3999 17.74C22.7599 17.9667 23.0799 18.9533 22.0999 19.9267L20.4466 21.58C20.1666 21.86 20.0133 22.4 20.0999 22.7867L20.5733 24.8333C20.9466 26.4533 20.0866 27.08 18.6533 26.2333L16.6599 25.0533C16.2999 24.84 15.7066 24.84 15.3399 25.0533L13.3466 26.2333C11.9199 27.08 11.0533 26.4467 11.4266 24.8333L11.8999 22.7867C11.9866 22.4 11.8333 21.86 11.5533 21.58L9.89994 19.9267C8.92661 18.9533 9.23994 17.9667 10.5999 17.74L12.7266 17.3867C13.0799 17.3267 13.5066 17.0133 13.6666 16.6867L14.8399 14.34C15.4799 13.0667 16.5199 13.0667 17.1533 14.34Z" stroke="#FFAD49" stroke-width="1.5" stroke-linecap="round" stroke-linejoin="round"/>
<path d="M31.104 19.984C30.5067 19.7493 30.048 19.408 29.728 18.96C29.408 18.512 29.248 17.968 29.248 17.328C29.248 16.752 29.392 16.2347 29.68 15.776C29.968 15.3067 30.3947 14.9387 30.96 14.672C31.536 14.3947 32.2293 14.256 33.04 14.256C33.8507 14.256 34.5387 14.3947 35.104 14.672C35.68 14.9387 36.112 15.3067 36.4 15.776C36.6987 16.2347 36.848 16.752 36.848 17.328C36.848 17.9467 36.6827 18.4907 36.352 18.96C36.0213 19.4187 35.568 19.76 34.992 19.984C35.6533 20.1867 36.176 20.544 36.56 21.056C36.9547 21.5573 37.152 22.1653 37.152 22.88C37.152 23.5733 36.9813 24.1813 36.64 24.704C36.2987 25.216 35.8133 25.616 35.184 25.904C34.5653 26.1813 33.8507 26.32 33.04 26.32C32.2293 26.32 31.5147 26.1813 30.896 25.904C30.288 25.616 29.8133 25.216 29.472 24.704C29.1307 24.1813 28.96 23.5733 28.96 22.88C28.96 22.1653 29.152 21.552 29.536 21.04C29.92 20.528 30.4427 20.176 31.104 19.984ZM35.44 17.504C35.44 16.8533 35.2267 16.352 34.8 16C34.3733 15.648 33.7867 15.472 33.04 15.472C32.304 15.472 31.7227 15.648 31.296 16C30.8693 16.352 30.656 16.8587 30.656 17.52C30.656 18.1173 30.8747 18.5973 31.312 18.96C31.76 19.3227 32.336 19.504 33.04 19.504C33.7547 19.504 34.3307 19.3227 34.768 18.96C35.216 18.5867 35.44 18.1013 35.44 17.504ZM33.04 20.624C32.2507 20.624 31.6053 20.8107 31.104 21.184C30.6027 21.5467 30.352 22.096 30.352 22.832C30.352 23.5147 30.592 24.064 31.072 24.48C31.5627 24.896 32.2187 25.104 33.04 25.104C33.8613 25.104 34.512 24.896 34.992 24.48C35.472 24.064 35.712 23.5147 35.712 22.832C35.712 22.1173 35.4667 21.5733 34.976 21.2C34.4853 20.816 33.84 20.624 33.04 20.624ZM39.7898 26.096C39.5124 26.096 39.2778 26 39.0858 25.808C38.8938 25.616 38.7978 25.3813 38.7978 25.104C38.7978 24.8267 38.8938 24.592 39.0858 24.4C39.2778 24.208 39.5124 24.112 39.7898 24.112C40.0564 24.112 40.2804 24.208 40.4618 24.4C40.6538 24.592 40.7498 24.8267 40.7498 25.104C40.7498 25.3813 40.6538 25.616 40.4618 25.808C40.2804 26 40.0564 26.096 39.7898 26.096ZM42.0931 23.424V22.32L47.7091 14.544H49.4531V22.16H51.0531V23.424H49.4531V26H48.0131V23.424H42.0931ZM48.0771 16.064L43.7731 22.16H48.0771V16.064Z" fill="#FFAD49"/>
</g>
<defs>
<filter id="filter0_b_1265_921" x="-8" y="-8" width="76" height="56" filterUnits="userSpaceOnUse" color-interpolation-filters="sRGB">
<feFlood flood-opacity="0" result="BackgroundImageFix"/>
<feGaussianBlur in="BackgroundImageFix" stdDeviation="4"/>
<feComposite in2="SourceAlpha" operator="in" result="effect1_backgroundBlur_1265_921"/>
<feBlend mode="normal" in="SourceGraphic" in2="effect1_backgroundBlur_1265_921" result="shape"/>
</filter>
</defs>
</svg>
