<svg width="560" height="144" viewBox="0 0 560 144" fill="none" xmlns="http://www.w3.org/2000/svg">
<g filter="url(#filter0_b_516_334)">
<rect width="560" height="144" rx="24" fill="#20283E" fill-opacity="0.8"/>
<path d="M49.408 43.696V52H48.316V45.808L45.556 52H44.788L42.016 45.796V52H40.924V43.696H42.1L45.172 50.56L48.244 43.696H49.408ZM50.8519 48.688C50.8519 48.016 50.9879 47.428 51.2599 46.924C51.5319 46.412 51.9039 46.016 52.3759 45.736C52.8559 45.456 53.3879 45.316 53.9719 45.316C54.5479 45.316 55.0479 45.44 55.4719 45.688C55.8959 45.936 56.2119 46.248 56.4199 46.624V45.424H57.5239V52H56.4199V50.776C56.2039 51.16 55.8799 51.48 55.4479 51.736C55.0239 51.984 54.5279 52.108 53.9599 52.108C53.3759 52.108 52.8479 51.964 52.3759 51.676C51.9039 51.388 51.5319 50.984 51.2599 50.464C50.9879 49.944 50.8519 49.352 50.8519 48.688ZM56.4199 48.7C56.4199 48.204 56.3199 47.772 56.1199 47.404C55.9199 47.036 55.6479 46.756 55.3039 46.564C54.9679 46.364 54.5959 46.264 54.1879 46.264C53.7799 46.264 53.4079 46.36 53.0719 46.552C52.7359 46.744 52.4679 47.024 52.2679 47.392C52.0679 47.76 51.9679 48.192 51.9679 48.688C51.9679 49.192 52.0679 49.632 52.2679 50.008C52.4679 50.376 52.7359 50.66 53.0719 50.86C53.4079 51.052 53.7799 51.148 54.1879 51.148C54.5959 51.148 54.9679 51.052 55.3039 50.86C55.6479 50.66 55.9199 50.376 56.1199 50.008C56.3199 49.632 56.4199 49.196 56.4199 48.7ZM59.9333 44.356C59.7253 44.356 59.5493 44.284 59.4053 44.14C59.2613 43.996 59.1893 43.82 59.1893 43.612C59.1893 43.404 59.2613 43.228 59.4053 43.084C59.5493 42.94 59.7253 42.868 59.9333 42.868C60.1333 42.868 60.3013 42.94 60.4373 43.084C60.5813 43.228 60.6533 43.404 60.6533 43.612C60.6533 43.82 60.5813 43.996 60.4373 44.14C60.3013 44.284 60.1333 44.356 59.9333 44.356ZM60.4613 45.424V52H59.3693V45.424H60.4613ZM63.4144 43.12V52H62.3224V43.12H63.4144ZM71.2756 48.46C71.2756 48.668 71.2636 48.888 71.2396 49.12H65.9836C66.0236 49.768 66.2436 50.276 66.6436 50.644C67.0516 51.004 67.5436 51.184 68.1196 51.184C68.5916 51.184 68.9836 51.076 69.2956 50.86C69.6156 50.636 69.8396 50.34 69.9676 49.972H71.1436C70.9676 50.604 70.6156 51.12 70.0876 51.52C69.5596 51.912 68.9036 52.108 68.1196 52.108C67.4956 52.108 66.9356 51.968 66.4396 51.688C65.9516 51.408 65.5676 51.012 65.2876 50.5C65.0076 49.98 64.8676 49.38 64.8676 48.7C64.8676 48.02 65.0036 47.424 65.2756 46.912C65.5476 46.4 65.9276 46.008 66.4156 45.736C66.9116 45.456 67.4796 45.316 68.1196 45.316C68.7436 45.316 69.2956 45.452 69.7756 45.724C70.2556 45.996 70.6236 46.372 70.8796 46.852C71.1436 47.324 71.2756 47.86 71.2756 48.46ZM70.1476 48.232C70.1476 47.816 70.0556 47.46 69.8716 47.164C69.6876 46.86 69.4356 46.632 69.1156 46.48C68.8036 46.32 68.4556 46.24 68.0716 46.24C67.5196 46.24 67.0476 46.416 66.6556 46.768C66.2716 47.12 66.0516 47.608 65.9956 48.232H70.1476ZM79.161 43.636V52H78.069V48.208H73.809V52H72.717V43.636H73.809V47.308H78.069V43.636H79.161ZM87.0256 48.46C87.0256 48.668 87.0136 48.888 86.9896 49.12H81.7336C81.7736 49.768 81.9936 50.276 82.3936 50.644C82.8016 51.004 83.2936 51.184 83.8696 51.184C84.3416 51.184 84.7336 51.076 85.0456 50.86C85.3656 50.636 85.5896 50.34 85.7176 49.972H86.8936C86.7176 50.604 86.3656 51.12 85.8376 51.52C85.3096 51.912 84.6536 52.108 83.8696 52.108C83.2456 52.108 82.6856 51.968 82.1896 51.688C81.7016 51.408 81.3176 51.012 81.0376 50.5C80.7576 49.98 80.6176 49.38 80.6176 48.7C80.6176 48.02 80.7536 47.424 81.0256 46.912C81.2976 46.4 81.6776 46.008 82.1656 45.736C82.6616 45.456 83.2296 45.316 83.8696 45.316C84.4936 45.316 85.0456 45.452 85.5256 45.724C86.0056 45.996 86.3736 46.372 86.6296 46.852C86.8936 47.324 87.0256 47.86 87.0256 48.46ZM85.8976 48.232C85.8976 47.816 85.8056 47.46 85.6216 47.164C85.4376 46.86 85.1856 46.632 84.8656 46.48C84.5536 46.32 84.2056 46.24 83.8216 46.24C83.2696 46.24 82.7976 46.416 82.4056 46.768C82.0216 47.12 81.8016 47.608 81.7456 48.232H85.8976ZM89.559 46.492C89.751 46.116 90.023 45.824 90.375 45.616C90.735 45.408 91.171 45.304 91.683 45.304V46.432H91.395C90.171 46.432 89.559 47.096 89.559 48.424V52H88.467V45.424H89.559V46.492ZM98.9435 48.46C98.9435 48.668 98.9315 48.888 98.9075 49.12H93.6515C93.6915 49.768 93.9115 50.276 94.3115 50.644C94.7195 51.004 95.2115 51.184 95.7875 51.184C96.2595 51.184 96.6515 51.076 96.9635 50.86C97.2835 50.636 97.5075 50.34 97.6355 49.972H98.8115C98.6355 50.604 98.2835 51.12 97.7555 51.52C97.2275 51.912 96.5715 52.108 95.7875 52.108C95.1635 52.108 94.6035 51.968 94.1075 51.688C93.6195 51.408 93.2355 51.012 92.9555 50.5C92.6755 49.98 92.5355 49.38 92.5355 48.7C92.5355 48.02 92.6715 47.424 92.9435 46.912C93.2155 46.4 93.5955 46.008 94.0835 45.736C94.5795 45.456 95.1475 45.316 95.7875 45.316C96.4115 45.316 96.9635 45.452 97.4435 45.724C97.9235 45.996 98.2915 46.372 98.5475 46.852C98.8115 47.324 98.9435 47.86 98.9435 48.46ZM97.8155 48.232C97.8155 47.816 97.7235 47.46 97.5395 47.164C97.3555 46.86 97.1035 46.632 96.7835 46.48C96.4715 46.32 96.1235 46.24 95.7395 46.24C95.1875 46.24 94.7155 46.416 94.3235 46.768C93.9395 47.12 93.7195 47.608 93.6635 48.232H97.8155ZM104.057 52L101.477 49.096V52H100.385V43.12H101.477V48.34L104.009 45.424H105.533L102.437 48.7L105.545 52H104.057ZM109.429 52.108C108.813 52.108 108.253 51.968 107.749 51.688C107.253 51.408 106.861 51.012 106.573 50.5C106.293 49.98 106.153 49.38 106.153 48.7C106.153 48.028 106.297 47.436 106.585 46.924C106.881 46.404 107.281 46.008 107.785 45.736C108.289 45.456 108.853 45.316 109.477 45.316C110.101 45.316 110.665 45.456 111.169 45.736C111.673 46.008 112.069 46.4 112.357 46.912C112.653 47.424 112.801 48.02 112.801 48.7C112.801 49.38 112.649 49.98 112.345 50.5C112.049 51.012 111.645 51.408 111.133 51.688C110.621 51.968 110.053 52.108 109.429 52.108ZM109.429 51.148C109.821 51.148 110.189 51.056 110.533 50.872C110.877 50.688 111.153 50.412 111.361 50.044C111.577 49.676 111.685 49.228 111.685 48.7C111.685 48.172 111.581 47.724 111.373 47.356C111.165 46.988 110.893 46.716 110.557 46.54C110.221 46.356 109.857 46.264 109.465 46.264C109.065 46.264 108.697 46.356 108.361 46.54C108.033 46.716 107.769 46.988 107.569 47.356C107.369 47.724 107.269 48.172 107.269 48.7C107.269 49.236 107.365 49.688 107.557 50.056C107.757 50.424 108.021 50.7 108.349 50.884C108.677 51.06 109.037 51.148 109.429 51.148Z" fill="#BEB7FB"/>
<path d="M122.024 53.48H123.068L127.124 43.58H126.08L122.024 53.48Z" fill="#8996A2"/>
<path d="M145.408 43.696V52H144.316V45.808L141.556 52H140.788L138.016 45.796V52H136.924V43.696H138.1L141.172 50.56L144.244 43.696H145.408ZM150.128 52.108C149.512 52.108 148.952 51.968 148.448 51.688C147.952 51.408 147.56 51.012 147.272 50.5C146.992 49.98 146.852 49.38 146.852 48.7C146.852 48.028 146.996 47.436 147.284 46.924C147.58 46.404 147.98 46.008 148.484 45.736C148.988 45.456 149.552 45.316 150.176 45.316C150.8 45.316 151.364 45.456 151.868 45.736C152.372 46.008 152.768 46.4 153.056 46.912C153.352 47.424 153.5 48.02 153.5 48.7C153.5 49.38 153.348 49.98 153.044 50.5C152.748 51.012 152.344 51.408 151.832 51.688C151.32 51.968 150.752 52.108 150.128 52.108ZM150.128 51.148C150.52 51.148 150.888 51.056 151.232 50.872C151.576 50.688 151.852 50.412 152.06 50.044C152.276 49.676 152.384 49.228 152.384 48.7C152.384 48.172 152.28 47.724 152.072 47.356C151.864 46.988 151.592 46.716 151.256 46.54C150.92 46.356 150.556 46.264 150.164 46.264C149.764 46.264 149.396 46.356 149.06 46.54C148.732 46.716 148.468 46.988 148.268 47.356C148.068 47.724 147.968 48.172 147.968 48.7C147.968 49.236 148.064 49.688 148.256 50.056C148.456 50.424 148.72 50.7 149.048 50.884C149.376 51.06 149.736 51.148 150.128 51.148ZM157.384 50.992L159.424 45.424H160.588L158.008 52H156.736L154.156 45.424H155.332L157.384 50.992ZM162.226 44.356C162.018 44.356 161.842 44.284 161.698 44.14C161.554 43.996 161.482 43.82 161.482 43.612C161.482 43.404 161.554 43.228 161.698 43.084C161.842 42.94 162.018 42.868 162.226 42.868C162.426 42.868 162.594 42.94 162.73 43.084C162.874 43.228 162.946 43.404 162.946 43.612C162.946 43.82 162.874 43.996 162.73 44.14C162.594 44.284 162.426 44.356 162.226 44.356ZM162.754 45.424V52H161.662V45.424H162.754ZM170.615 48.46C170.615 48.668 170.603 48.888 170.579 49.12H165.323C165.363 49.768 165.583 50.276 165.983 50.644C166.391 51.004 166.883 51.184 167.459 51.184C167.931 51.184 168.323 51.076 168.635 50.86C168.955 50.636 169.179 50.34 169.307 49.972H170.483C170.307 50.604 169.955 51.12 169.427 51.52C168.899 51.912 168.243 52.108 167.459 52.108C166.835 52.108 166.275 51.968 165.779 51.688C165.291 51.408 164.907 51.012 164.627 50.5C164.347 49.98 164.207 49.38 164.207 48.7C164.207 48.02 164.343 47.424 164.615 46.912C164.887 46.4 165.267 46.008 165.755 45.736C166.251 45.456 166.819 45.316 167.459 45.316C168.083 45.316 168.635 45.452 169.115 45.724C169.595 45.996 169.963 46.372 170.219 46.852C170.483 47.324 170.615 47.86 170.615 48.46ZM169.487 48.232C169.487 47.816 169.395 47.46 169.211 47.164C169.027 46.86 168.775 46.632 168.455 46.48C168.143 46.32 167.795 46.24 167.411 46.24C166.859 46.24 166.387 46.416 165.995 46.768C165.611 47.12 165.391 47.608 165.335 48.232H169.487ZM174.385 52.108C173.881 52.108 173.429 52.024 173.029 51.856C172.629 51.68 172.313 51.44 172.081 51.136C171.849 50.824 171.721 50.468 171.697 50.068H172.825C172.857 50.396 173.009 50.664 173.281 50.872C173.561 51.08 173.925 51.184 174.373 51.184C174.789 51.184 175.117 51.092 175.357 50.908C175.597 50.724 175.717 50.492 175.717 50.212C175.717 49.924 175.589 49.712 175.333 49.576C175.077 49.432 174.681 49.292 174.145 49.156C173.657 49.028 173.257 48.9 172.945 48.772C172.641 48.636 172.377 48.44 172.153 48.184C171.937 47.92 171.829 47.576 171.829 47.152C171.829 46.816 171.929 46.508 172.129 46.228C172.329 45.948 172.613 45.728 172.981 45.568C173.349 45.4 173.769 45.316 174.241 45.316C174.969 45.316 175.557 45.5 176.005 45.868C176.453 46.236 176.693 46.74 176.725 47.38H175.633C175.609 47.036 175.469 46.76 175.213 46.552C174.965 46.344 174.629 46.24 174.205 46.24C173.813 46.24 173.501 46.324 173.269 46.492C173.037 46.66 172.921 46.88 172.921 47.152C172.921 47.368 172.989 47.548 173.125 47.692C173.269 47.828 173.445 47.94 173.653 48.028C173.869 48.108 174.165 48.2 174.541 48.304C175.013 48.432 175.397 48.56 175.693 48.688C175.989 48.808 176.241 48.992 176.449 49.24C176.665 49.488 176.777 49.812 176.785 50.212C176.785 50.572 176.685 50.896 176.485 51.184C176.285 51.472 176.001 51.7 175.633 51.868C175.273 52.028 174.857 52.108 174.385 52.108Z" fill="#BEB7FB"/>
<path d="M66.56 72.664V95H62.08V80.472L56.096 95H52.704L46.688 80.472V95H42.208V72.664H47.296L54.4 89.272L61.504 72.664H66.56ZM78.2213 95.288C76.5146 95.288 74.9786 94.9147 73.6133 94.168C72.2479 93.4 71.1706 92.3227 70.3813 90.936C69.6133 89.5493 69.2293 87.9493 69.2293 86.136C69.2293 84.3227 69.6239 82.7227 70.4133 81.336C71.2239 79.9493 72.3226 78.8827 73.7093 78.136C75.0959 77.368 76.6426 76.984 78.3493 76.984C80.0559 76.984 81.6026 77.368 82.9893 78.136C84.3759 78.8827 85.4639 79.9493 86.2533 81.336C87.0639 82.7227 87.4693 84.3227 87.4693 86.136C87.4693 87.9493 87.0533 89.5493 86.2213 90.936C85.4106 92.3227 84.3013 93.4 82.8933 94.168C81.5066 94.9147 79.9493 95.288 78.2213 95.288ZM78.2213 91.384C79.0319 91.384 79.7893 91.192 80.4933 90.808C81.2186 90.4027 81.7946 89.8053 82.2213 89.016C82.6479 88.2267 82.8613 87.2667 82.8613 86.136C82.8613 84.4507 82.4133 83.16 81.5173 82.264C80.6426 81.3467 79.5653 80.888 78.2853 80.888C77.0053 80.888 75.9279 81.3467 75.0533 82.264C74.1999 83.16 73.7733 84.4507 73.7733 86.136C73.7733 87.8213 74.1893 89.1227 75.0213 90.04C75.8746 90.936 76.9413 91.384 78.2213 91.384ZM99.9395 77.016C102.052 77.016 103.758 77.688 105.06 79.032C106.361 80.3547 107.012 82.2107 107.012 84.6V95H102.532V85.208C102.532 83.8 102.18 82.7227 101.476 81.976C100.772 81.208 99.8115 80.824 98.5955 80.824C97.3582 80.824 96.3768 81.208 95.6515 81.976C94.9475 82.7227 94.5955 83.8 94.5955 85.208V95H90.1155V77.272H94.5955V79.48C95.1928 78.712 95.9502 78.1147 96.8675 77.688C97.8062 77.24 98.8302 77.016 99.9395 77.016ZM127.112 85.752C127.112 86.392 127.069 86.968 126.984 87.48H114.024C114.13 88.76 114.578 89.7627 115.368 90.488C116.157 91.2133 117.128 91.576 118.28 91.576C119.944 91.576 121.128 90.8613 121.832 89.432H126.664C126.152 91.1387 125.17 92.5467 123.72 93.656C122.269 94.744 120.488 95.288 118.376 95.288C116.669 95.288 115.133 94.9147 113.768 94.168C112.424 93.4 111.368 92.3227 110.6 90.936C109.853 89.5493 109.48 87.9493 109.48 86.136C109.48 84.3013 109.853 82.6907 110.6 81.304C111.346 79.9173 112.392 78.8507 113.736 78.104C115.08 77.3573 116.626 76.984 118.376 76.984C120.061 76.984 121.565 77.3467 122.888 78.072C124.232 78.7973 125.266 79.832 125.992 81.176C126.738 82.4987 127.112 84.024 127.112 85.752ZM122.472 84.472C122.45 83.32 122.034 82.4027 121.224 81.72C120.413 81.016 119.421 80.664 118.248 80.664C117.138 80.664 116.2 81.0053 115.432 81.688C114.685 82.3493 114.226 83.2773 114.056 84.472H122.472ZM146.702 77.272L135.726 103.384H130.958L134.798 94.552L127.694 77.272H132.718L137.294 89.656L141.934 77.272H146.702ZM173.99 72.664V95H169.51V85.496H159.942V95H155.462V72.664H159.942V81.848H169.51V72.664H173.99ZM194.239 85.752C194.239 86.392 194.197 86.968 194.111 87.48H181.151C181.258 88.76 181.706 89.7627 182.495 90.488C183.285 91.2133 184.255 91.576 185.407 91.576C187.071 91.576 188.255 90.8613 188.959 89.432H193.791C193.279 91.1387 192.298 92.5467 190.847 93.656C189.397 94.744 187.615 95.288 185.503 95.288C183.797 95.288 182.261 94.9147 180.895 94.168C179.551 93.4 178.495 92.3227 177.727 90.936C176.981 89.5493 176.607 87.9493 176.607 86.136C176.607 84.3013 176.981 82.6907 177.727 81.304C178.474 79.9173 179.519 78.8507 180.863 78.104C182.207 77.3573 183.754 76.984 185.503 76.984C187.189 76.984 188.693 77.3467 190.015 78.072C191.359 78.7973 192.394 79.832 193.119 81.176C193.866 82.4987 194.239 84.024 194.239 85.752ZM189.599 84.472C189.578 83.32 189.162 82.4027 188.351 81.72C187.541 81.016 186.549 80.664 185.375 80.664C184.266 80.664 183.327 81.0053 182.559 81.688C181.813 82.3493 181.354 83.2773 181.183 84.472H189.599ZM199.141 75.16C198.352 75.16 197.691 74.9147 197.157 74.424C196.645 73.912 196.389 73.2827 196.389 72.536C196.389 71.7893 196.645 71.1707 197.157 70.68C197.691 70.168 198.352 69.912 199.141 69.912C199.931 69.912 200.581 70.168 201.093 70.68C201.627 71.1707 201.893 71.7893 201.893 72.536C201.893 73.2827 201.627 73.912 201.093 74.424C200.581 74.9147 199.931 75.16 199.141 75.16ZM201.349 77.272V95H196.869V77.272H201.349ZM211.92 95.288C210.469 95.288 209.168 95.032 208.016 94.52C206.864 93.9867 205.946 93.272 205.264 92.376C204.602 91.48 204.24 90.488 204.176 89.4H208.688C208.773 90.0827 209.104 90.648 209.68 91.096C210.277 91.544 211.013 91.768 211.888 91.768C212.741 91.768 213.402 91.5973 213.872 91.256C214.362 90.9147 214.608 90.4773 214.608 89.944C214.608 89.368 214.309 88.9413 213.712 88.664C213.136 88.3653 212.208 88.0453 210.928 87.704C209.605 87.384 208.517 87.0533 207.664 86.712C206.832 86.3707 206.106 85.848 205.488 85.144C204.89 84.44 204.592 83.4907 204.592 82.296C204.592 81.3147 204.869 80.4187 205.424 79.608C206 78.7973 206.81 78.1573 207.856 77.688C208.922 77.2187 210.17 76.984 211.6 76.984C213.712 76.984 215.397 77.5173 216.656 78.584C217.914 79.6293 218.608 81.048 218.736 82.84H214.448C214.384 82.136 214.085 81.5813 213.552 81.176C213.04 80.7493 212.346 80.536 211.472 80.536C210.661 80.536 210.032 80.6853 209.584 80.984C209.157 81.2827 208.944 81.6987 208.944 82.232C208.944 82.8293 209.242 83.288 209.84 83.608C210.437 83.9067 211.365 84.216 212.624 84.536C213.904 84.856 214.96 85.1867 215.792 85.528C216.624 85.8693 217.338 86.4027 217.936 87.128C218.554 87.832 218.874 88.7707 218.896 89.944C218.896 90.968 218.608 91.8853 218.032 92.696C217.477 93.5067 216.666 94.1467 215.6 94.616C214.554 95.064 213.328 95.288 211.92 95.288ZM227.149 80.952V89.528C227.149 90.1253 227.288 90.5627 227.565 90.84C227.864 91.096 228.354 91.224 229.037 91.224H231.117V95H228.301C224.525 95 222.637 93.1653 222.637 89.496V80.952H220.525V77.272H222.637V72.888H227.149V77.272H231.117V80.952H227.149Z" fill="#EBEEF5"/>
</g>
<defs>
<filter id="filter0_b_516_334" x="-24" y="-24" width="608" height="192" filterUnits="userSpaceOnUse" color-interpolation-filters="sRGB">
<feFlood flood-opacity="0" result="BackgroundImageFix"/>
<feGaussianBlur in="BackgroundImageFix" stdDeviation="12"/>
<feComposite in2="SourceAlpha" operator="in" result="effect1_backgroundBlur_516_334"/>
<feBlend mode="normal" in="SourceGraphic" in2="effect1_backgroundBlur_516_334" result="shape"/>
</filter>
</defs>
</svg>
