<svg width="60" height="40" viewBox="0 0 60 40" fill="none" xmlns="http://www.w3.org/2000/svg">
<g filter="url(#filter0_b_1229_1711)">
<rect width="60" height="40" rx="8" fill="black" fill-opacity="0.65"/>
<path d="M17.1533 14.34L18.3266 16.6867C18.4866 17.0133 18.9133 17.3267 19.2733 17.3867L21.3999 17.74C22.7599 17.9667 23.0799 18.9533 22.0999 19.9267L20.4466 21.58C20.1666 21.86 20.0133 22.4 20.0999 22.7867L20.5733 24.8333C20.9466 26.4533 20.0866 27.08 18.6533 26.2333L16.6599 25.0533C16.2999 24.84 15.7066 24.84 15.3399 25.0533L13.3466 26.2333C11.9199 27.08 11.0533 26.4467 11.4266 24.8333L11.8999 22.7867C11.9866 22.4 11.8333 21.86 11.5533 21.58L9.89994 19.9267C8.92661 18.9533 9.23994 17.9667 10.5999 17.74L12.7266 17.3867C13.0799 17.3267 13.5066 17.0133 13.6666 16.6867L14.8399 14.34C15.4799 13.0667 16.5199 13.0667 17.1533 14.34Z" stroke="#FFAD49" stroke-width="1.5" stroke-linecap="round" stroke-linejoin="round"/>
<path d="M35.44 17.184C35.2053 16 34.4747 15.408 33.248 15.408C32.2987 15.408 31.5893 15.776 31.12 16.512C30.6507 17.2373 30.4213 18.4373 30.432 20.112C30.6773 19.5573 31.0827 19.1253 31.648 18.816C32.224 18.496 32.864 18.336 33.568 18.336C34.6667 18.336 35.5413 18.6773 36.192 19.36C36.8533 20.0427 37.184 20.9867 37.184 22.192C37.184 22.9173 37.04 23.568 36.752 24.144C36.4747 24.72 36.048 25.1787 35.472 25.52C34.9067 25.8613 34.2187 26.032 33.408 26.032C32.3093 26.032 31.4507 25.7867 30.832 25.296C30.2133 24.8053 29.7813 24.128 29.536 23.264C29.2907 22.4 29.168 21.3333 29.168 20.064C29.168 16.1493 30.5333 14.192 33.264 14.192C34.3093 14.192 35.1307 14.4747 35.728 15.04C36.3253 15.6053 36.6773 16.32 36.784 17.184H35.44ZM33.264 19.568C32.8053 19.568 32.3733 19.664 31.968 19.856C31.5627 20.0373 31.232 20.32 30.976 20.704C30.7307 21.0773 30.608 21.536 30.608 22.08C30.608 22.8907 30.8427 23.552 31.312 24.064C31.7813 24.5653 32.4533 24.816 33.328 24.816C34.0747 24.816 34.6667 24.5867 35.104 24.128C35.552 23.6587 35.776 23.0293 35.776 22.24C35.776 21.408 35.5627 20.7573 35.136 20.288C34.7093 19.808 34.0853 19.568 33.264 19.568ZM39.8523 26.096C39.5749 26.096 39.3403 26 39.1483 25.808C38.9563 25.616 38.8603 25.3813 38.8603 25.104C38.8603 24.8267 38.9563 24.592 39.1483 24.4C39.3403 24.208 39.5749 24.112 39.8523 24.112C40.1189 24.112 40.3429 24.208 40.5243 24.4C40.7163 24.592 40.8123 24.8267 40.8123 25.104C40.8123 25.3813 40.7163 25.616 40.5243 25.808C40.3429 26 40.1189 26.096 39.8523 26.096ZM44.6196 19.984C44.0223 19.7493 43.5636 19.408 43.2436 18.96C42.9236 18.512 42.7636 17.968 42.7636 17.328C42.7636 16.752 42.9076 16.2347 43.1956 15.776C43.4836 15.3067 43.9103 14.9387 44.4756 14.672C45.0516 14.3947 45.745 14.256 46.5556 14.256C47.3663 14.256 48.0543 14.3947 48.6196 14.672C49.1956 14.9387 49.6276 15.3067 49.9156 15.776C50.2143 16.2347 50.3636 16.752 50.3636 17.328C50.3636 17.9467 50.1983 18.4907 49.8676 18.96C49.537 19.4187 49.0836 19.76 48.5076 19.984C49.169 20.1867 49.6916 20.544 50.0756 21.056C50.4703 21.5573 50.6676 22.1653 50.6676 22.88C50.6676 23.5733 50.497 24.1813 50.1556 24.704C49.8143 25.216 49.329 25.616 48.6996 25.904C48.081 26.1813 47.3663 26.32 46.5556 26.32C45.745 26.32 45.0303 26.1813 44.4116 25.904C43.8036 25.616 43.329 25.216 42.9876 24.704C42.6463 24.1813 42.4756 23.5733 42.4756 22.88C42.4756 22.1653 42.6676 21.552 43.0516 21.04C43.4356 20.528 43.9583 20.176 44.6196 19.984ZM48.9556 17.504C48.9556 16.8533 48.7423 16.352 48.3156 16C47.889 15.648 47.3023 15.472 46.5556 15.472C45.8196 15.472 45.2383 15.648 44.8116 16C44.385 16.352 44.1716 16.8587 44.1716 17.52C44.1716 18.1173 44.3903 18.5973 44.8276 18.96C45.2756 19.3227 45.8516 19.504 46.5556 19.504C47.2703 19.504 47.8463 19.3227 48.2836 18.96C48.7316 18.5867 48.9556 18.1013 48.9556 17.504ZM46.5556 20.624C45.7663 20.624 45.121 20.8107 44.6196 21.184C44.1183 21.5467 43.8676 22.096 43.8676 22.832C43.8676 23.5147 44.1076 24.064 44.5876 24.48C45.0783 24.896 45.7343 25.104 46.5556 25.104C47.377 25.104 48.0276 24.896 48.5076 24.48C48.9876 24.064 49.2276 23.5147 49.2276 22.832C49.2276 22.1173 48.9823 21.5733 48.4916 21.2C48.001 20.816 47.3556 20.624 46.5556 20.624Z" fill="#FFAD49"/>
</g>
<defs>
<filter id="filter0_b_1229_1711" x="-8" y="-8" width="76" height="56" filterUnits="userSpaceOnUse" color-interpolation-filters="sRGB">
<feFlood flood-opacity="0" result="BackgroundImageFix"/>
<feGaussianBlur in="BackgroundImageFix" stdDeviation="4"/>
<feComposite in2="SourceAlpha" operator="in" result="effect1_backgroundBlur_1229_1711"/>
<feBlend mode="normal" in="SourceGraphic" in2="effect1_backgroundBlur_1229_1711" result="shape"/>
</filter>
</defs>
</svg>
