<svg width="59" height="40" viewBox="0 0 59 40" fill="none" xmlns="http://www.w3.org/2000/svg">
<g filter="url(#filter0_b_1229_264)">
<rect width="59" height="40" rx="8" fill="black" fill-opacity="0.65"/>
<path d="M17.1533 14.34L18.3266 16.6867C18.4866 17.0133 18.9133 17.3267 19.2733 17.3867L21.3999 17.74C22.7599 17.9667 23.0799 18.9533 22.0999 19.9267L20.4466 21.58C20.1666 21.86 20.0133 22.4 20.0999 22.7867L20.5733 24.8333C20.9466 26.4533 20.0866 27.08 18.6533 26.2333L16.6599 25.0533C16.2999 24.84 15.7066 24.84 15.3399 25.0533L13.3466 26.2333C11.9199 27.08 11.0533 26.4467 11.4266 24.8333L11.8999 22.7867C11.9866 22.4 11.8333 21.86 11.5533 21.58L9.89994 19.9267C8.92661 18.9533 9.23994 17.9667 10.5999 17.74L12.7266 17.3867C13.0799 17.3267 13.5066 17.0133 13.6666 16.6867L14.8399 14.34C15.4799 13.0667 16.5199 13.0667 17.1533 14.34Z" stroke="#FFAD49" stroke-width="1.5" stroke-linecap="round" stroke-linejoin="round"/>
<path d="M36.112 15.568L31.664 26H30.192L34.704 15.712H28.528V14.464H36.112V15.568ZM38.4304 26.096C38.153 26.096 37.9184 26 37.7264 25.808C37.5344 25.616 37.4384 25.3813 37.4384 25.104C37.4384 24.8267 37.5344 24.592 37.7264 24.4C37.9184 24.208 38.153 24.112 38.4304 24.112C38.697 24.112 38.921 24.208 39.1024 24.4C39.2944 24.592 39.3904 24.8267 39.3904 25.104C39.3904 25.3813 39.2944 25.616 39.1024 25.808C38.921 26 38.697 26.096 38.4304 26.096ZM42.9578 22.896C43.0644 23.504 43.3098 23.9733 43.6938 24.304C44.0884 24.6347 44.6164 24.8 45.2778 24.8C46.1631 24.8 46.8138 24.4533 47.2298 23.76C47.6564 23.0667 47.8591 21.8987 47.8378 20.256C47.6138 20.736 47.2404 21.1147 46.7178 21.392C46.1951 21.6587 45.6138 21.792 44.9738 21.792C44.2591 21.792 43.6191 21.648 43.0538 21.36C42.4991 21.0613 42.0618 20.6293 41.7418 20.064C41.4218 19.4987 41.2618 18.816 41.2618 18.016C41.2618 16.8747 41.5924 15.9573 42.2538 15.264C42.9151 14.56 43.8538 14.208 45.0698 14.208C46.5631 14.208 47.6084 14.6933 48.2058 15.664C48.8138 16.6347 49.1178 18.08 49.1178 20C49.1178 21.344 48.9951 22.4533 48.7498 23.328C48.5151 24.2027 48.1098 24.8693 47.5338 25.328C46.9684 25.7867 46.1898 26.016 45.1978 26.016C44.1098 26.016 43.2618 25.7227 42.6538 25.136C42.0458 24.5493 41.6991 23.8027 41.6138 22.896H42.9578ZM45.2138 20.56C45.9284 20.56 46.5151 20.3413 46.9738 19.904C47.4324 19.456 47.6618 18.8533 47.6618 18.096C47.6618 17.296 47.4378 16.6507 46.9898 16.16C46.5418 15.6693 45.9124 15.424 45.1018 15.424C44.3551 15.424 43.7578 15.6587 43.3098 16.128C42.8724 16.5973 42.6538 17.216 42.6538 17.984C42.6538 18.7627 42.8724 19.3867 43.3098 19.856C43.7471 20.3253 44.3818 20.56 45.2138 20.56Z" fill="#FFAD49"/>
</g>
<defs>
<filter id="filter0_b_1229_264" x="-8" y="-8" width="75" height="56" filterUnits="userSpaceOnUse" color-interpolation-filters="sRGB">
<feFlood flood-opacity="0" result="BackgroundImageFix"/>
<feGaussianBlur in="BackgroundImageFix" stdDeviation="4"/>
<feComposite in2="SourceAlpha" operator="in" result="effect1_backgroundBlur_1229_264"/>
<feBlend mode="normal" in="SourceGraphic" in2="effect1_backgroundBlur_1229_264" result="shape"/>
</filter>
</defs>
</svg>
