<svg width="560" height="144" viewBox="0 0 560 144" fill="none" xmlns="http://www.w3.org/2000/svg">
<g filter="url(#filter0_b_516_334)">
<rect width="560" height="144" rx="24" fill="#20283E" fill-opacity="0.8"/>
<path d="M49.408 43.696V52H48.316V45.808L45.556 52H44.788L42.016 45.796V52H40.924V43.696H42.1L45.172 50.56L48.244 43.696H49.408ZM50.8519 48.688C50.8519 48.016 50.9879 47.428 51.2599 46.924C51.5319 46.412 51.9039 46.016 52.3759 45.736C52.8559 45.456 53.3879 45.316 53.9719 45.316C54.5479 45.316 55.0479 45.44 55.4719 45.688C55.8959 45.936 56.2119 46.248 56.4199 46.624V45.424H57.5239V52H56.4199V50.776C56.2039 51.16 55.8799 51.48 55.4479 51.736C55.0239 51.984 54.5279 52.108 53.9599 52.108C53.3759 52.108 52.8479 51.964 52.3759 51.676C51.9039 51.388 51.5319 50.984 51.2599 50.464C50.9879 49.944 50.8519 49.352 50.8519 48.688ZM56.4199 48.7C56.4199 48.204 56.3199 47.772 56.1199 47.404C55.9199 47.036 55.6479 46.756 55.3039 46.564C54.9679 46.364 54.5959 46.264 54.1879 46.264C53.7799 46.264 53.4079 46.36 53.0719 46.552C52.7359 46.744 52.4679 47.024 52.2679 47.392C52.0679 47.76 51.9679 48.192 51.9679 48.688C51.9679 49.192 52.0679 49.632 52.2679 50.008C52.4679 50.376 52.7359 50.66 53.0719 50.86C53.4079 51.052 53.7799 51.148 54.1879 51.148C54.5959 51.148 54.9679 51.052 55.3039 50.86C55.6479 50.66 55.9199 50.376 56.1199 50.008C56.3199 49.632 56.4199 49.196 56.4199 48.7ZM59.9333 44.356C59.7253 44.356 59.5493 44.284 59.4053 44.14C59.2613 43.996 59.1893 43.82 59.1893 43.612C59.1893 43.404 59.2613 43.228 59.4053 43.084C59.5493 42.94 59.7253 42.868 59.9333 42.868C60.1333 42.868 60.3013 42.94 60.4373 43.084C60.5813 43.228 60.6533 43.404 60.6533 43.612C60.6533 43.82 60.5813 43.996 60.4373 44.14C60.3013 44.284 60.1333 44.356 59.9333 44.356ZM60.4613 45.424V52H59.3693V45.424H60.4613ZM63.4144 43.12V52H62.3224V43.12H63.4144ZM71.2756 48.46C71.2756 48.668 71.2636 48.888 71.2396 49.12H65.9836C66.0236 49.768 66.2436 50.276 66.6436 50.644C67.0516 51.004 67.5436 51.184 68.1196 51.184C68.5916 51.184 68.9836 51.076 69.2956 50.86C69.6156 50.636 69.8396 50.34 69.9676 49.972H71.1436C70.9676 50.604 70.6156 51.12 70.0876 51.52C69.5596 51.912 68.9036 52.108 68.1196 52.108C67.4956 52.108 66.9356 51.968 66.4396 51.688C65.9516 51.408 65.5676 51.012 65.2876 50.5C65.0076 49.98 64.8676 49.38 64.8676 48.7C64.8676 48.02 65.0036 47.424 65.2756 46.912C65.5476 46.4 65.9276 46.008 66.4156 45.736C66.9116 45.456 67.4796 45.316 68.1196 45.316C68.7436 45.316 69.2956 45.452 69.7756 45.724C70.2556 45.996 70.6236 46.372 70.8796 46.852C71.1436 47.324 71.2756 47.86 71.2756 48.46ZM70.1476 48.232C70.1476 47.816 70.0556 47.46 69.8716 47.164C69.6876 46.86 69.4356 46.632 69.1156 46.48C68.8036 46.32 68.4556 46.24 68.0716 46.24C67.5196 46.24 67.0476 46.416 66.6556 46.768C66.2716 47.12 66.0516 47.608 65.9956 48.232H70.1476ZM79.161 43.636V52H78.069V48.208H73.809V52H72.717V43.636H73.809V47.308H78.069V43.636H79.161ZM87.0256 48.46C87.0256 48.668 87.0136 48.888 86.9896 49.12H81.7336C81.7736 49.768 81.9936 50.276 82.3936 50.644C82.8016 51.004 83.2936 51.184 83.8696 51.184C84.3416 51.184 84.7336 51.076 85.0456 50.86C85.3656 50.636 85.5896 50.34 85.7176 49.972H86.8936C86.7176 50.604 86.3656 51.12 85.8376 51.52C85.3096 51.912 84.6536 52.108 83.8696 52.108C83.2456 52.108 82.6856 51.968 82.1896 51.688C81.7016 51.408 81.3176 51.012 81.0376 50.5C80.7576 49.98 80.6176 49.38 80.6176 48.7C80.6176 48.02 80.7536 47.424 81.0256 46.912C81.2976 46.4 81.6776 46.008 82.1656 45.736C82.6616 45.456 83.2296 45.316 83.8696 45.316C84.4936 45.316 85.0456 45.452 85.5256 45.724C86.0056 45.996 86.3736 46.372 86.6296 46.852C86.8936 47.324 87.0256 47.86 87.0256 48.46ZM85.8976 48.232C85.8976 47.816 85.8056 47.46 85.6216 47.164C85.4376 46.86 85.1856 46.632 84.8656 46.48C84.5536 46.32 84.2056 46.24 83.8216 46.24C83.2696 46.24 82.7976 46.416 82.4056 46.768C82.0216 47.12 81.8016 47.608 81.7456 48.232H85.8976ZM89.559 46.492C89.751 46.116 90.023 45.824 90.375 45.616C90.735 45.408 91.171 45.304 91.683 45.304V46.432H91.395C90.171 46.432 89.559 47.096 89.559 48.424V52H88.467V45.424H89.559V46.492ZM98.9435 48.46C98.9435 48.668 98.9315 48.888 98.9075 49.12H93.6515C93.6915 49.768 93.9115 50.276 94.3115 50.644C94.7195 51.004 95.2115 51.184 95.7875 51.184C96.2595 51.184 96.6515 51.076 96.9635 50.86C97.2835 50.636 97.5075 50.34 97.6355 49.972H98.8115C98.6355 50.604 98.2835 51.12 97.7555 51.52C97.2275 51.912 96.5715 52.108 95.7875 52.108C95.1635 52.108 94.6035 51.968 94.1075 51.688C93.6195 51.408 93.2355 51.012 92.9555 50.5C92.6755 49.98 92.5355 49.38 92.5355 48.7C92.5355 48.02 92.6715 47.424 92.9435 46.912C93.2155 46.4 93.5955 46.008 94.0835 45.736C94.5795 45.456 95.1475 45.316 95.7875 45.316C96.4115 45.316 96.9635 45.452 97.4435 45.724C97.9235 45.996 98.2915 46.372 98.5475 46.852C98.8115 47.324 98.9435 47.86 98.9435 48.46ZM97.8155 48.232C97.8155 47.816 97.7235 47.46 97.5395 47.164C97.3555 46.86 97.1035 46.632 96.7835 46.48C96.4715 46.32 96.1235 46.24 95.7395 46.24C95.1875 46.24 94.7155 46.416 94.3235 46.768C93.9395 47.12 93.7195 47.608 93.6635 48.232H97.8155ZM104.057 52L101.477 49.096V52H100.385V43.12H101.477V48.34L104.009 45.424H105.533L102.437 48.7L105.545 52H104.057ZM109.429 52.108C108.813 52.108 108.253 51.968 107.749 51.688C107.253 51.408 106.861 51.012 106.573 50.5C106.293 49.98 106.153 49.38 106.153 48.7C106.153 48.028 106.297 47.436 106.585 46.924C106.881 46.404 107.281 46.008 107.785 45.736C108.289 45.456 108.853 45.316 109.477 45.316C110.101 45.316 110.665 45.456 111.169 45.736C111.673 46.008 112.069 46.4 112.357 46.912C112.653 47.424 112.801 48.02 112.801 48.7C112.801 49.38 112.649 49.98 112.345 50.5C112.049 51.012 111.645 51.408 111.133 51.688C110.621 51.968 110.053 52.108 109.429 52.108ZM109.429 51.148C109.821 51.148 110.189 51.056 110.533 50.872C110.877 50.688 111.153 50.412 111.361 50.044C111.577 49.676 111.685 49.228 111.685 48.7C111.685 48.172 111.581 47.724 111.373 47.356C111.165 46.988 110.893 46.716 110.557 46.54C110.221 46.356 109.857 46.264 109.465 46.264C109.065 46.264 108.697 46.356 108.361 46.54C108.033 46.716 107.769 46.988 107.569 47.356C107.369 47.724 107.269 48.172 107.269 48.7C107.269 49.236 107.365 49.688 107.557 50.056C107.757 50.424 108.021 50.7 108.349 50.884C108.677 51.06 109.037 51.148 109.429 51.148Z" fill="#BEB7FB"/>
<path d="M122.024 53.48H123.068L127.124 43.58H126.08L122.024 53.48Z" fill="#8996A2"/>
<path d="M145.408 43.696V52H144.316V45.808L141.556 52H140.788L138.016 45.796V52H136.924V43.696H138.1L141.172 50.56L144.244 43.696H145.408ZM150.128 52.108C149.512 52.108 148.952 51.968 148.448 51.688C147.952 51.408 147.56 51.012 147.272 50.5C146.992 49.98 146.852 49.38 146.852 48.7C146.852 48.028 146.996 47.436 147.284 46.924C147.58 46.404 147.98 46.008 148.484 45.736C148.988 45.456 149.552 45.316 150.176 45.316C150.8 45.316 151.364 45.456 151.868 45.736C152.372 46.008 152.768 46.4 153.056 46.912C153.352 47.424 153.5 48.02 153.5 48.7C153.5 49.38 153.348 49.98 153.044 50.5C152.748 51.012 152.344 51.408 151.832 51.688C151.32 51.968 150.752 52.108 150.128 52.108ZM150.128 51.148C150.52 51.148 150.888 51.056 151.232 50.872C151.576 50.688 151.852 50.412 152.06 50.044C152.276 49.676 152.384 49.228 152.384 48.7C152.384 48.172 152.28 47.724 152.072 47.356C151.864 46.988 151.592 46.716 151.256 46.54C150.92 46.356 150.556 46.264 150.164 46.264C149.764 46.264 149.396 46.356 149.06 46.54C148.732 46.716 148.468 46.988 148.268 47.356C148.068 47.724 147.968 48.172 147.968 48.7C147.968 49.236 148.064 49.688 148.256 50.056C148.456 50.424 148.72 50.7 149.048 50.884C149.376 51.06 149.736 51.148 150.128 51.148ZM157.384 50.992L159.424 45.424H160.588L158.008 52H156.736L154.156 45.424H155.332L157.384 50.992ZM162.226 44.356C162.018 44.356 161.842 44.284 161.698 44.14C161.554 43.996 161.482 43.82 161.482 43.612C161.482 43.404 161.554 43.228 161.698 43.084C161.842 42.94 162.018 42.868 162.226 42.868C162.426 42.868 162.594 42.94 162.73 43.084C162.874 43.228 162.946 43.404 162.946 43.612C162.946 43.82 162.874 43.996 162.73 44.14C162.594 44.284 162.426 44.356 162.226 44.356ZM162.754 45.424V52H161.662V45.424H162.754ZM170.615 48.46C170.615 48.668 170.603 48.888 170.579 49.12H165.323C165.363 49.768 165.583 50.276 165.983 50.644C166.391 51.004 166.883 51.184 167.459 51.184C167.931 51.184 168.323 51.076 168.635 50.86C168.955 50.636 169.179 50.34 169.307 49.972H170.483C170.307 50.604 169.955 51.12 169.427 51.52C168.899 51.912 168.243 52.108 167.459 52.108C166.835 52.108 166.275 51.968 165.779 51.688C165.291 51.408 164.907 51.012 164.627 50.5C164.347 49.98 164.207 49.38 164.207 48.7C164.207 48.02 164.343 47.424 164.615 46.912C164.887 46.4 165.267 46.008 165.755 45.736C166.251 45.456 166.819 45.316 167.459 45.316C168.083 45.316 168.635 45.452 169.115 45.724C169.595 45.996 169.963 46.372 170.219 46.852C170.483 47.324 170.615 47.86 170.615 48.46ZM169.487 48.232C169.487 47.816 169.395 47.46 169.211 47.164C169.027 46.86 168.775 46.632 168.455 46.48C168.143 46.32 167.795 46.24 167.411 46.24C166.859 46.24 166.387 46.416 165.995 46.768C165.611 47.12 165.391 47.608 165.335 48.232H169.487ZM174.385 52.108C173.881 52.108 173.429 52.024 173.029 51.856C172.629 51.68 172.313 51.44 172.081 51.136C171.849 50.824 171.721 50.468 171.697 50.068H172.825C172.857 50.396 173.009 50.664 173.281 50.872C173.561 51.08 173.925 51.184 174.373 51.184C174.789 51.184 175.117 51.092 175.357 50.908C175.597 50.724 175.717 50.492 175.717 50.212C175.717 49.924 175.589 49.712 175.333 49.576C175.077 49.432 174.681 49.292 174.145 49.156C173.657 49.028 173.257 48.9 172.945 48.772C172.641 48.636 172.377 48.44 172.153 48.184C171.937 47.92 171.829 47.576 171.829 47.152C171.829 46.816 171.929 46.508 172.129 46.228C172.329 45.948 172.613 45.728 172.981 45.568C173.349 45.4 173.769 45.316 174.241 45.316C174.969 45.316 175.557 45.5 176.005 45.868C176.453 46.236 176.693 46.74 176.725 47.38H175.633C175.609 47.036 175.469 46.76 175.213 46.552C174.965 46.344 174.629 46.24 174.205 46.24C173.813 46.24 173.501 46.324 173.269 46.492C173.037 46.66 172.921 46.88 172.921 47.152C172.921 47.368 172.989 47.548 173.125 47.692C173.269 47.828 173.445 47.94 173.653 48.028C173.869 48.108 174.165 48.2 174.541 48.304C175.013 48.432 175.397 48.56 175.693 48.688C175.989 48.808 176.241 48.992 176.449 49.24C176.665 49.488 176.777 49.812 176.785 50.212C176.785 50.572 176.685 50.896 176.485 51.184C176.285 51.472 176.001 51.7 175.633 51.868C175.273 52.028 174.857 52.108 174.385 52.108Z" fill="#BEB7FB"/>
<path d="M49.92 95.224C48.3627 95.224 46.9547 94.9573 45.696 94.424C44.4587 93.8907 43.4773 93.1227 42.752 92.12C42.0267 91.1173 41.6533 89.9333 41.632 88.568H46.432C46.496 89.4853 46.816 90.2107 47.392 90.744C47.9893 91.2773 48.8 91.544 49.824 91.544C50.8693 91.544 51.6907 91.2987 52.288 90.808C52.8853 90.296 53.184 89.6347 53.184 88.824C53.184 88.1627 52.9813 87.6187 52.576 87.192C52.1707 86.7653 51.6587 86.4347 51.04 86.2C50.4427 85.944 49.6107 85.6667 48.544 85.368C47.0933 84.9413 45.9093 84.5253 44.992 84.12C44.096 83.6933 43.3173 83.064 42.656 82.232C42.016 81.3787 41.696 80.248 41.696 78.84C41.696 77.5173 42.0267 76.3653 42.688 75.384C43.3493 74.4027 44.2773 73.656 45.472 73.144C46.6667 72.6107 48.032 72.344 49.568 72.344C51.872 72.344 53.7387 72.9093 55.168 74.04C56.6187 75.1493 57.4187 76.7067 57.568 78.712H52.64C52.5973 77.944 52.2667 77.3147 51.648 76.824C51.0507 76.312 50.2507 76.056 49.248 76.056C48.3733 76.056 47.6693 76.28 47.136 76.728C46.624 77.176 46.368 77.8267 46.368 78.68C46.368 79.2773 46.56 79.7787 46.944 80.184C47.3493 80.568 47.84 80.888 48.416 81.144C49.0133 81.3787 49.8453 81.656 50.912 81.976C52.3627 82.4027 53.5467 82.8293 54.464 83.256C55.3813 83.6827 56.1707 84.3227 56.832 85.176C57.4933 86.0293 57.824 87.1493 57.824 88.536C57.824 89.7307 57.5147 90.84 56.896 91.864C56.2773 92.888 55.3707 93.7093 54.176 94.328C52.9813 94.9253 51.5627 95.224 49.92 95.224ZM71.052 77.016C72.396 77.016 73.5907 77.3147 74.636 77.912C75.6813 78.488 76.492 79.352 77.068 80.504C77.6653 81.6347 77.964 83 77.964 84.6V95H73.484V85.208C73.484 83.8 73.132 82.7227 72.428 81.976C71.724 81.208 70.764 80.824 69.548 80.824C68.3107 80.824 67.3293 81.208 66.604 81.976C65.9 82.7227 65.548 83.8 65.548 85.208V95H61.068V71.32H65.548V79.48C66.124 78.712 66.892 78.1147 67.852 77.688C68.812 77.24 69.8787 77.016 71.052 77.016ZM80.4323 86.072C80.4323 84.28 80.7843 82.6907 81.4883 81.304C82.2136 79.9173 83.1843 78.8507 84.4003 78.104C85.6376 77.3573 87.0136 76.984 88.5283 76.984C89.8509 76.984 91.0029 77.2507 91.9843 77.784C92.9869 78.3173 93.7869 78.9893 94.3843 79.8V77.272H98.8963V95H94.3843V92.408C93.8083 93.24 93.0083 93.9333 91.9843 94.488C90.9816 95.0213 89.8189 95.288 88.4963 95.288C87.0029 95.288 85.6376 94.904 84.4003 94.136C83.1843 93.368 82.2136 92.2907 81.4883 90.904C80.7843 89.496 80.4323 87.8853 80.4323 86.072ZM94.3843 86.136C94.3843 85.048 94.1709 84.12 93.7443 83.352C93.3176 82.5627 92.7416 81.9653 92.0163 81.56C91.2909 81.1333 90.5123 80.92 89.6803 80.92C88.8483 80.92 88.0803 81.1227 87.3763 81.528C86.6723 81.9333 86.0963 82.5307 85.6483 83.32C85.2216 84.088 85.0083 85.0053 85.0083 86.072C85.0083 87.1387 85.2216 88.0773 85.6483 88.888C86.0963 89.6773 86.6723 90.2853 87.3763 90.712C88.1016 91.1387 88.8696 91.352 89.6803 91.352C90.5123 91.352 91.2909 91.1493 92.0163 90.744C92.7416 90.3173 93.3176 89.72 93.7443 88.952C94.1709 88.1627 94.3843 87.224 94.3843 86.136ZM112.456 77.016C114.568 77.016 116.274 77.688 117.576 79.032C118.877 80.3547 119.528 82.2107 119.528 84.6V95H115.048V85.208C115.048 83.8 114.696 82.7227 113.992 81.976C113.288 81.208 112.328 80.824 111.112 80.824C109.874 80.824 108.893 81.208 108.168 81.976C107.464 82.7227 107.112 83.8 107.112 85.208V95H102.632V77.272H107.112V79.48C107.709 78.712 108.466 78.1147 109.384 77.688C110.322 77.24 111.346 77.016 112.456 77.016ZM130.092 76.984C131.415 76.984 132.577 77.2507 133.58 77.784C134.583 78.296 135.372 78.968 135.948 79.8V77.272H140.46V95.128C140.46 96.7707 140.129 98.232 139.468 99.512C138.807 100.813 137.815 101.837 136.492 102.584C135.169 103.352 133.569 103.736 131.692 103.736C129.175 103.736 127.105 103.149 125.484 101.976C123.884 100.803 122.977 99.2027 122.764 97.176H127.212C127.447 97.9867 127.948 98.6267 128.716 99.096C129.505 99.5867 130.455 99.832 131.564 99.832C132.865 99.832 133.921 99.4373 134.732 98.648C135.543 97.88 135.948 96.7067 135.948 95.128V92.376C135.372 93.208 134.572 93.9013 133.548 94.456C132.545 95.0107 131.393 95.288 130.092 95.288C128.599 95.288 127.233 94.904 125.996 94.136C124.759 93.368 123.777 92.2907 123.052 90.904C122.348 89.496 121.996 87.8853 121.996 86.072C121.996 84.28 122.348 82.6907 123.052 81.304C123.777 79.9173 124.748 78.8507 125.964 78.104C127.201 77.3573 128.577 76.984 130.092 76.984ZM135.948 86.136C135.948 85.048 135.735 84.12 135.308 83.352C134.881 82.5627 134.305 81.9653 133.58 81.56C132.855 81.1333 132.076 80.92 131.244 80.92C130.412 80.92 129.644 81.1227 128.94 81.528C128.236 81.9333 127.66 82.5307 127.212 83.32C126.785 84.088 126.572 85.0053 126.572 86.072C126.572 87.1387 126.785 88.0773 127.212 88.888C127.66 89.6773 128.236 90.2853 128.94 90.712C129.665 91.1387 130.433 91.352 131.244 91.352C132.076 91.352 132.855 91.1493 133.58 90.744C134.305 90.3173 134.881 89.72 135.308 88.952C135.735 88.1627 135.948 87.224 135.948 86.136ZM150.093 83.8C150.093 81.6027 150.583 79.64 151.565 77.912C152.567 76.1627 153.922 74.808 155.629 73.848C157.357 72.8667 159.287 72.376 161.421 72.376C163.917 72.376 166.103 73.016 167.981 74.296C169.858 75.576 171.17 77.3467 171.917 79.608H166.765C166.253 78.5413 165.527 77.7413 164.589 77.208C163.671 76.6747 162.605 76.408 161.389 76.408C160.087 76.408 158.925 76.7173 157.901 77.336C156.898 77.9333 156.109 78.7867 155.533 79.896C154.978 81.0053 154.701 82.3067 154.701 83.8C154.701 85.272 154.978 86.5733 155.533 87.704C156.109 88.8133 156.898 89.6773 157.901 90.296C158.925 90.8933 160.087 91.192 161.389 91.192C162.605 91.192 163.671 90.9253 164.589 90.392C165.527 89.8373 166.253 89.0267 166.765 87.96H171.917C171.17 90.2427 169.858 92.024 167.981 93.304C166.125 94.5627 163.938 95.192 161.421 95.192C159.287 95.192 157.357 94.712 155.629 93.752C153.922 92.7707 152.567 91.416 151.565 89.688C150.583 87.96 150.093 85.9973 150.093 83.8ZM185.087 77.016C186.431 77.016 187.626 77.3147 188.671 77.912C189.716 78.488 190.527 79.352 191.103 80.504C191.7 81.6347 191.999 83 191.999 84.6V95H187.519V85.208C187.519 83.8 187.167 82.7227 186.463 81.976C185.759 81.208 184.799 80.824 183.583 80.824C182.346 80.824 181.364 81.208 180.639 81.976C179.935 82.7227 179.583 83.8 179.583 85.208V95H175.103V71.32H179.583V79.48C180.159 78.712 180.927 78.1147 181.887 77.688C182.847 77.24 183.914 77.016 185.087 77.016ZM197.891 75.16C197.102 75.16 196.441 74.9147 195.907 74.424C195.395 73.912 195.139 73.2827 195.139 72.536C195.139 71.7893 195.395 71.1707 195.907 70.68C196.441 70.168 197.102 69.912 197.891 69.912C198.681 69.912 199.331 70.168 199.843 70.68C200.377 71.1707 200.643 71.7893 200.643 72.536C200.643 73.2827 200.377 73.912 199.843 74.424C199.331 74.9147 198.681 75.16 197.891 75.16ZM200.099 77.272V95H195.619V77.272H200.099Z" fill="#EBEEF5"/>
</g>
<defs>
<filter id="filter0_b_516_334" x="-24" y="-24" width="608" height="192" filterUnits="userSpaceOnUse" color-interpolation-filters="sRGB">
<feFlood flood-opacity="0" result="BackgroundImageFix"/>
<feGaussianBlur in="BackgroundImageFix" stdDeviation="12"/>
<feComposite in2="SourceAlpha" operator="in" result="effect1_backgroundBlur_516_334"/>
<feBlend mode="normal" in="SourceGraphic" in2="effect1_backgroundBlur_516_334" result="shape"/>
</filter>
</defs>
</svg>
