<svg width="560" height="144" viewBox="0 0 560 144" fill="none" xmlns="http://www.w3.org/2000/svg">
<g filter="url(#filter0_b_516_334)">
<rect width="560" height="144" rx="24" fill="#20283E" fill-opacity="0.8"/>
<path d="M49.408 43.696V52H48.316V45.808L45.556 52H44.788L42.016 45.796V52H40.924V43.696H42.1L45.172 50.56L48.244 43.696H49.408ZM50.8519 48.688C50.8519 48.016 50.9879 47.428 51.2599 46.924C51.5319 46.412 51.9039 46.016 52.3759 45.736C52.8559 45.456 53.3879 45.316 53.9719 45.316C54.5479 45.316 55.0479 45.44 55.4719 45.688C55.8959 45.936 56.2119 46.248 56.4199 46.624V45.424H57.5239V52H56.4199V50.776C56.2039 51.16 55.8799 51.48 55.4479 51.736C55.0239 51.984 54.5279 52.108 53.9599 52.108C53.3759 52.108 52.8479 51.964 52.3759 51.676C51.9039 51.388 51.5319 50.984 51.2599 50.464C50.9879 49.944 50.8519 49.352 50.8519 48.688ZM56.4199 48.7C56.4199 48.204 56.3199 47.772 56.1199 47.404C55.9199 47.036 55.6479 46.756 55.3039 46.564C54.9679 46.364 54.5959 46.264 54.1879 46.264C53.7799 46.264 53.4079 46.36 53.0719 46.552C52.7359 46.744 52.4679 47.024 52.2679 47.392C52.0679 47.76 51.9679 48.192 51.9679 48.688C51.9679 49.192 52.0679 49.632 52.2679 50.008C52.4679 50.376 52.7359 50.66 53.0719 50.86C53.4079 51.052 53.7799 51.148 54.1879 51.148C54.5959 51.148 54.9679 51.052 55.3039 50.86C55.6479 50.66 55.9199 50.376 56.1199 50.008C56.3199 49.632 56.4199 49.196 56.4199 48.7ZM59.9333 44.356C59.7253 44.356 59.5493 44.284 59.4053 44.14C59.2613 43.996 59.1893 43.82 59.1893 43.612C59.1893 43.404 59.2613 43.228 59.4053 43.084C59.5493 42.94 59.7253 42.868 59.9333 42.868C60.1333 42.868 60.3013 42.94 60.4373 43.084C60.5813 43.228 60.6533 43.404 60.6533 43.612C60.6533 43.82 60.5813 43.996 60.4373 44.14C60.3013 44.284 60.1333 44.356 59.9333 44.356ZM60.4613 45.424V52H59.3693V45.424H60.4613ZM63.4144 43.12V52H62.3224V43.12H63.4144ZM71.2756 48.46C71.2756 48.668 71.2636 48.888 71.2396 49.12H65.9836C66.0236 49.768 66.2436 50.276 66.6436 50.644C67.0516 51.004 67.5436 51.184 68.1196 51.184C68.5916 51.184 68.9836 51.076 69.2956 50.86C69.6156 50.636 69.8396 50.34 69.9676 49.972H71.1436C70.9676 50.604 70.6156 51.12 70.0876 51.52C69.5596 51.912 68.9036 52.108 68.1196 52.108C67.4956 52.108 66.9356 51.968 66.4396 51.688C65.9516 51.408 65.5676 51.012 65.2876 50.5C65.0076 49.98 64.8676 49.38 64.8676 48.7C64.8676 48.02 65.0036 47.424 65.2756 46.912C65.5476 46.4 65.9276 46.008 66.4156 45.736C66.9116 45.456 67.4796 45.316 68.1196 45.316C68.7436 45.316 69.2956 45.452 69.7756 45.724C70.2556 45.996 70.6236 46.372 70.8796 46.852C71.1436 47.324 71.2756 47.86 71.2756 48.46ZM70.1476 48.232C70.1476 47.816 70.0556 47.46 69.8716 47.164C69.6876 46.86 69.4356 46.632 69.1156 46.48C68.8036 46.32 68.4556 46.24 68.0716 46.24C67.5196 46.24 67.0476 46.416 66.6556 46.768C66.2716 47.12 66.0516 47.608 65.9956 48.232H70.1476ZM79.161 43.636V52H78.069V48.208H73.809V52H72.717V43.636H73.809V47.308H78.069V43.636H79.161ZM87.0256 48.46C87.0256 48.668 87.0136 48.888 86.9896 49.12H81.7336C81.7736 49.768 81.9936 50.276 82.3936 50.644C82.8016 51.004 83.2936 51.184 83.8696 51.184C84.3416 51.184 84.7336 51.076 85.0456 50.86C85.3656 50.636 85.5896 50.34 85.7176 49.972H86.8936C86.7176 50.604 86.3656 51.12 85.8376 51.52C85.3096 51.912 84.6536 52.108 83.8696 52.108C83.2456 52.108 82.6856 51.968 82.1896 51.688C81.7016 51.408 81.3176 51.012 81.0376 50.5C80.7576 49.98 80.6176 49.38 80.6176 48.7C80.6176 48.02 80.7536 47.424 81.0256 46.912C81.2976 46.4 81.6776 46.008 82.1656 45.736C82.6616 45.456 83.2296 45.316 83.8696 45.316C84.4936 45.316 85.0456 45.452 85.5256 45.724C86.0056 45.996 86.3736 46.372 86.6296 46.852C86.8936 47.324 87.0256 47.86 87.0256 48.46ZM85.8976 48.232C85.8976 47.816 85.8056 47.46 85.6216 47.164C85.4376 46.86 85.1856 46.632 84.8656 46.48C84.5536 46.32 84.2056 46.24 83.8216 46.24C83.2696 46.24 82.7976 46.416 82.4056 46.768C82.0216 47.12 81.8016 47.608 81.7456 48.232H85.8976ZM89.559 46.492C89.751 46.116 90.023 45.824 90.375 45.616C90.735 45.408 91.171 45.304 91.683 45.304V46.432H91.395C90.171 46.432 89.559 47.096 89.559 48.424V52H88.467V45.424H89.559V46.492ZM98.9435 48.46C98.9435 48.668 98.9315 48.888 98.9075 49.12H93.6515C93.6915 49.768 93.9115 50.276 94.3115 50.644C94.7195 51.004 95.2115 51.184 95.7875 51.184C96.2595 51.184 96.6515 51.076 96.9635 50.86C97.2835 50.636 97.5075 50.34 97.6355 49.972H98.8115C98.6355 50.604 98.2835 51.12 97.7555 51.52C97.2275 51.912 96.5715 52.108 95.7875 52.108C95.1635 52.108 94.6035 51.968 94.1075 51.688C93.6195 51.408 93.2355 51.012 92.9555 50.5C92.6755 49.98 92.5355 49.38 92.5355 48.7C92.5355 48.02 92.6715 47.424 92.9435 46.912C93.2155 46.4 93.5955 46.008 94.0835 45.736C94.5795 45.456 95.1475 45.316 95.7875 45.316C96.4115 45.316 96.9635 45.452 97.4435 45.724C97.9235 45.996 98.2915 46.372 98.5475 46.852C98.8115 47.324 98.9435 47.86 98.9435 48.46ZM97.8155 48.232C97.8155 47.816 97.7235 47.46 97.5395 47.164C97.3555 46.86 97.1035 46.632 96.7835 46.48C96.4715 46.32 96.1235 46.24 95.7395 46.24C95.1875 46.24 94.7155 46.416 94.3235 46.768C93.9395 47.12 93.7195 47.608 93.6635 48.232H97.8155ZM104.057 52L101.477 49.096V52H100.385V43.12H101.477V48.34L104.009 45.424H105.533L102.437 48.7L105.545 52H104.057ZM109.429 52.108C108.813 52.108 108.253 51.968 107.749 51.688C107.253 51.408 106.861 51.012 106.573 50.5C106.293 49.98 106.153 49.38 106.153 48.7C106.153 48.028 106.297 47.436 106.585 46.924C106.881 46.404 107.281 46.008 107.785 45.736C108.289 45.456 108.853 45.316 109.477 45.316C110.101 45.316 110.665 45.456 111.169 45.736C111.673 46.008 112.069 46.4 112.357 46.912C112.653 47.424 112.801 48.02 112.801 48.7C112.801 49.38 112.649 49.98 112.345 50.5C112.049 51.012 111.645 51.408 111.133 51.688C110.621 51.968 110.053 52.108 109.429 52.108ZM109.429 51.148C109.821 51.148 110.189 51.056 110.533 50.872C110.877 50.688 111.153 50.412 111.361 50.044C111.577 49.676 111.685 49.228 111.685 48.7C111.685 48.172 111.581 47.724 111.373 47.356C111.165 46.988 110.893 46.716 110.557 46.54C110.221 46.356 109.857 46.264 109.465 46.264C109.065 46.264 108.697 46.356 108.361 46.54C108.033 46.716 107.769 46.988 107.569 47.356C107.369 47.724 107.269 48.172 107.269 48.7C107.269 49.236 107.365 49.688 107.557 50.056C107.757 50.424 108.021 50.7 108.349 50.884C108.677 51.06 109.037 51.148 109.429 51.148Z" fill="#BEB7FB"/>
<path d="M122.024 53.48H123.068L127.124 43.58H126.08L122.024 53.48Z" fill="#8996A2"/>
<path d="M145.408 43.696V52H144.316V45.808L141.556 52H140.788L138.016 45.796V52H136.924V43.696H138.1L141.172 50.56L144.244 43.696H145.408ZM150.128 52.108C149.512 52.108 148.952 51.968 148.448 51.688C147.952 51.408 147.56 51.012 147.272 50.5C146.992 49.98 146.852 49.38 146.852 48.7C146.852 48.028 146.996 47.436 147.284 46.924C147.58 46.404 147.98 46.008 148.484 45.736C148.988 45.456 149.552 45.316 150.176 45.316C150.8 45.316 151.364 45.456 151.868 45.736C152.372 46.008 152.768 46.4 153.056 46.912C153.352 47.424 153.5 48.02 153.5 48.7C153.5 49.38 153.348 49.98 153.044 50.5C152.748 51.012 152.344 51.408 151.832 51.688C151.32 51.968 150.752 52.108 150.128 52.108ZM150.128 51.148C150.52 51.148 150.888 51.056 151.232 50.872C151.576 50.688 151.852 50.412 152.06 50.044C152.276 49.676 152.384 49.228 152.384 48.7C152.384 48.172 152.28 47.724 152.072 47.356C151.864 46.988 151.592 46.716 151.256 46.54C150.92 46.356 150.556 46.264 150.164 46.264C149.764 46.264 149.396 46.356 149.06 46.54C148.732 46.716 148.468 46.988 148.268 47.356C148.068 47.724 147.968 48.172 147.968 48.7C147.968 49.236 148.064 49.688 148.256 50.056C148.456 50.424 148.72 50.7 149.048 50.884C149.376 51.06 149.736 51.148 150.128 51.148ZM157.384 50.992L159.424 45.424H160.588L158.008 52H156.736L154.156 45.424H155.332L157.384 50.992ZM162.226 44.356C162.018 44.356 161.842 44.284 161.698 44.14C161.554 43.996 161.482 43.82 161.482 43.612C161.482 43.404 161.554 43.228 161.698 43.084C161.842 42.94 162.018 42.868 162.226 42.868C162.426 42.868 162.594 42.94 162.73 43.084C162.874 43.228 162.946 43.404 162.946 43.612C162.946 43.82 162.874 43.996 162.73 44.14C162.594 44.284 162.426 44.356 162.226 44.356ZM162.754 45.424V52H161.662V45.424H162.754ZM170.615 48.46C170.615 48.668 170.603 48.888 170.579 49.12H165.323C165.363 49.768 165.583 50.276 165.983 50.644C166.391 51.004 166.883 51.184 167.459 51.184C167.931 51.184 168.323 51.076 168.635 50.86C168.955 50.636 169.179 50.34 169.307 49.972H170.483C170.307 50.604 169.955 51.12 169.427 51.52C168.899 51.912 168.243 52.108 167.459 52.108C166.835 52.108 166.275 51.968 165.779 51.688C165.291 51.408 164.907 51.012 164.627 50.5C164.347 49.98 164.207 49.38 164.207 48.7C164.207 48.02 164.343 47.424 164.615 46.912C164.887 46.4 165.267 46.008 165.755 45.736C166.251 45.456 166.819 45.316 167.459 45.316C168.083 45.316 168.635 45.452 169.115 45.724C169.595 45.996 169.963 46.372 170.219 46.852C170.483 47.324 170.615 47.86 170.615 48.46ZM169.487 48.232C169.487 47.816 169.395 47.46 169.211 47.164C169.027 46.86 168.775 46.632 168.455 46.48C168.143 46.32 167.795 46.24 167.411 46.24C166.859 46.24 166.387 46.416 165.995 46.768C165.611 47.12 165.391 47.608 165.335 48.232H169.487ZM174.385 52.108C173.881 52.108 173.429 52.024 173.029 51.856C172.629 51.68 172.313 51.44 172.081 51.136C171.849 50.824 171.721 50.468 171.697 50.068H172.825C172.857 50.396 173.009 50.664 173.281 50.872C173.561 51.08 173.925 51.184 174.373 51.184C174.789 51.184 175.117 51.092 175.357 50.908C175.597 50.724 175.717 50.492 175.717 50.212C175.717 49.924 175.589 49.712 175.333 49.576C175.077 49.432 174.681 49.292 174.145 49.156C173.657 49.028 173.257 48.9 172.945 48.772C172.641 48.636 172.377 48.44 172.153 48.184C171.937 47.92 171.829 47.576 171.829 47.152C171.829 46.816 171.929 46.508 172.129 46.228C172.329 45.948 172.613 45.728 172.981 45.568C173.349 45.4 173.769 45.316 174.241 45.316C174.969 45.316 175.557 45.5 176.005 45.868C176.453 46.236 176.693 46.74 176.725 47.38H175.633C175.609 47.036 175.469 46.76 175.213 46.552C174.965 46.344 174.629 46.24 174.205 46.24C173.813 46.24 173.501 46.324 173.269 46.492C173.037 46.66 172.921 46.88 172.921 47.152C172.921 47.368 172.989 47.548 173.125 47.692C173.269 47.828 173.445 47.94 173.653 48.028C173.869 48.108 174.165 48.2 174.541 48.304C175.013 48.432 175.397 48.56 175.693 48.688C175.989 48.808 176.241 48.992 176.449 49.24C176.665 49.488 176.777 49.812 176.785 50.212C176.785 50.572 176.685 50.896 176.485 51.184C176.285 51.472 176.001 51.7 175.633 51.868C175.273 52.028 174.857 52.108 174.385 52.108Z" fill="#BEB7FB"/>
<path d="M57.408 72.664V76.28H51.456V95H46.976V76.28H41.024V72.664H57.408ZM70.0208 77.016C71.3648 77.016 72.5594 77.3147 73.6048 77.912C74.6501 78.488 75.4608 79.352 76.0368 80.504C76.6341 81.6347 76.9328 83 76.9328 84.6V95H72.4528V85.208C72.4528 83.8 72.1008 82.7227 71.3968 81.976C70.6928 81.208 69.7328 80.824 68.5168 80.824C67.2794 80.824 66.2981 81.208 65.5728 81.976C64.8688 82.7227 64.5168 83.8 64.5168 85.208V95H60.0368V71.32H64.5168V79.48C65.0928 78.712 65.8608 78.1147 66.8208 77.688C67.7808 77.24 68.8474 77.016 70.0208 77.016ZM97.033 85.752C97.033 86.392 96.9903 86.968 96.905 87.48H83.945C84.0517 88.76 84.4997 89.7627 85.289 90.488C86.0783 91.2133 87.049 91.576 88.201 91.576C89.865 91.576 91.049 90.8613 91.753 89.432H96.585C96.073 91.1387 95.0917 92.5467 93.641 93.656C92.1903 94.744 90.409 95.288 88.297 95.288C86.5903 95.288 85.0543 94.9147 83.689 94.168C82.345 93.4 81.289 92.3227 80.521 90.936C79.7743 89.5493 79.401 87.9493 79.401 86.136C79.401 84.3013 79.7743 82.6907 80.521 81.304C81.2677 79.9173 82.313 78.8507 83.657 78.104C85.001 77.3573 86.5477 76.984 88.297 76.984C89.9823 76.984 91.4863 77.3467 92.809 78.072C94.153 78.7973 95.1877 79.832 95.913 81.176C96.6597 82.4987 97.033 84.024 97.033 85.752ZM92.393 84.472C92.3717 83.32 91.9557 82.4027 91.145 81.72C90.3343 81.016 89.3423 80.664 88.169 80.664C87.0597 80.664 86.121 81.0053 85.353 81.688C84.6063 82.3493 84.1477 83.2773 83.977 84.472H92.393ZM119.32 83.544C120.579 83.7787 121.613 84.408 122.424 85.432C123.235 86.456 123.64 87.6293 123.64 88.952C123.64 90.1467 123.341 91.2027 122.744 92.12C122.168 93.016 121.325 93.72 120.216 94.232C119.107 94.744 117.795 95 116.28 95H106.648V72.664H115.864C117.379 72.664 118.68 72.9093 119.768 73.4C120.877 73.8907 121.709 74.5733 122.264 75.448C122.84 76.3227 123.128 77.3147 123.128 78.424C123.128 79.7253 122.776 80.8133 122.072 81.688C121.389 82.5627 120.472 83.1813 119.32 83.544ZM111.128 81.88H115.224C116.291 81.88 117.112 81.6453 117.688 81.176C118.264 80.6853 118.552 79.992 118.552 79.096C118.552 78.2 118.264 77.5067 117.688 77.016C117.112 76.5253 116.291 76.28 115.224 76.28H111.128V81.88ZM115.64 91.352C116.728 91.352 117.571 91.096 118.168 90.584C118.787 90.072 119.096 89.3467 119.096 88.408C119.096 87.448 118.776 86.7013 118.136 86.168C117.496 85.6133 116.632 85.336 115.544 85.336H111.128V91.352H115.64ZM128.843 75.16C128.053 75.16 127.392 74.9147 126.859 74.424C126.347 73.912 126.091 73.2827 126.091 72.536C126.091 71.7893 126.347 71.1707 126.859 70.68C127.392 70.168 128.053 69.912 128.843 69.912C129.632 69.912 130.283 70.168 130.795 70.68C131.328 71.1707 131.595 71.7893 131.595 72.536C131.595 73.2827 131.328 73.912 130.795 74.424C130.283 74.9147 129.632 75.16 128.843 75.16ZM131.051 77.272V95H126.571V77.272H131.051ZM141.781 76.984C143.103 76.984 144.266 77.2507 145.269 77.784C146.271 78.296 147.061 78.968 147.637 79.8V77.272H152.149V95.128C152.149 96.7707 151.818 98.232 151.157 99.512C150.495 100.813 149.503 101.837 148.181 102.584C146.858 103.352 145.258 103.736 143.381 103.736C140.863 103.736 138.794 103.149 137.173 101.976C135.573 100.803 134.666 99.2027 134.453 97.176H138.901C139.135 97.9867 139.637 98.6267 140.405 99.096C141.194 99.5867 142.143 99.832 143.253 99.832C144.554 99.832 145.61 99.4373 146.421 98.648C147.231 97.88 147.637 96.7067 147.637 95.128V92.376C147.061 93.208 146.261 93.9013 145.237 94.456C144.234 95.0107 143.082 95.288 141.781 95.288C140.287 95.288 138.922 94.904 137.685 94.136C136.447 93.368 135.466 92.2907 134.741 90.904C134.037 89.496 133.685 87.8853 133.685 86.072C133.685 84.28 134.037 82.6907 134.741 81.304C135.466 79.9173 136.437 78.8507 137.653 78.104C138.89 77.3573 140.266 76.984 141.781 76.984ZM147.637 86.136C147.637 85.048 147.423 84.12 146.997 83.352C146.57 82.5627 145.994 81.9653 145.269 81.56C144.543 81.1333 143.765 80.92 142.933 80.92C142.101 80.92 141.333 81.1227 140.629 81.528C139.925 81.9333 139.349 82.5307 138.901 83.32C138.474 84.088 138.261 85.0053 138.261 86.072C138.261 87.1387 138.474 88.0773 138.901 88.888C139.349 89.6773 139.925 90.2853 140.629 90.712C141.354 91.1387 142.122 91.352 142.933 91.352C143.765 91.352 144.543 91.1493 145.269 90.744C145.994 90.3173 146.57 89.72 146.997 88.952C147.423 88.1627 147.637 87.224 147.637 86.136ZM175.541 83.544C176.8 83.7787 177.835 84.408 178.645 85.432C179.456 86.456 179.861 87.6293 179.861 88.952C179.861 90.1467 179.563 91.2027 178.965 92.12C178.389 93.016 177.547 93.72 176.437 94.232C175.328 94.744 174.016 95 172.501 95H162.869V72.664H172.085C173.6 72.664 174.901 72.9093 175.989 73.4C177.099 73.8907 177.931 74.5733 178.485 75.448C179.061 76.3227 179.349 77.3147 179.349 78.424C179.349 79.7253 178.997 80.8133 178.293 81.688C177.611 82.5627 176.693 83.1813 175.541 83.544ZM167.349 81.88H171.445C172.512 81.88 173.333 81.6453 173.909 81.176C174.485 80.6853 174.773 79.992 174.773 79.096C174.773 78.2 174.485 77.5067 173.909 77.016C173.333 76.5253 172.512 76.28 171.445 76.28H167.349V81.88ZM171.861 91.352C172.949 91.352 173.792 91.096 174.389 90.584C175.008 90.072 175.317 89.3467 175.317 88.408C175.317 87.448 174.997 86.7013 174.357 86.168C173.717 85.6133 172.853 85.336 171.765 85.336H167.349V91.352H171.861ZM181.64 86.072C181.64 84.28 181.992 82.6907 182.696 81.304C183.421 79.9173 184.392 78.8507 185.608 78.104C186.845 77.3573 188.221 76.984 189.736 76.984C191.058 76.984 192.21 77.2507 193.192 77.784C194.194 78.3173 194.994 78.9893 195.592 79.8V77.272H200.104V95H195.592V92.408C195.016 93.24 194.216 93.9333 193.192 94.488C192.189 95.0213 191.026 95.288 189.704 95.288C188.21 95.288 186.845 94.904 185.608 94.136C184.392 93.368 183.421 92.2907 182.696 90.904C181.992 89.496 181.64 87.8853 181.64 86.072ZM195.592 86.136C195.592 85.048 195.378 84.12 194.952 83.352C194.525 82.5627 193.949 81.9653 193.224 81.56C192.498 81.1333 191.72 80.92 190.888 80.92C190.056 80.92 189.288 81.1227 188.584 81.528C187.88 81.9333 187.304 82.5307 186.856 83.32C186.429 84.088 186.216 85.0053 186.216 86.072C186.216 87.1387 186.429 88.0773 186.856 88.888C187.304 89.6773 187.88 90.2853 188.584 90.712C189.309 91.1387 190.077 91.352 190.888 91.352C191.72 91.352 192.498 91.1493 193.224 90.744C193.949 90.3173 194.525 89.72 194.952 88.952C195.378 88.1627 195.592 87.224 195.592 86.136ZM213.663 77.016C215.775 77.016 217.482 77.688 218.783 79.032C220.085 80.3547 220.735 82.2107 220.735 84.6V95H216.255V85.208C216.255 83.8 215.903 82.7227 215.199 81.976C214.495 81.208 213.535 80.824 212.319 80.824C211.082 80.824 210.101 81.208 209.375 81.976C208.671 82.7227 208.319 83.8 208.319 85.208V95H203.839V77.272H208.319V79.48C208.917 78.712 209.674 78.1147 210.591 77.688C211.53 77.24 212.554 77.016 213.663 77.016ZM231.3 76.984C232.622 76.984 233.785 77.2507 234.788 77.784C235.79 78.296 236.58 78.968 237.156 79.8V77.272H241.668V95.128C241.668 96.7707 241.337 98.232 240.676 99.512C240.014 100.813 239.022 101.837 237.7 102.584C236.377 103.352 234.777 103.736 232.9 103.736C230.382 103.736 228.313 103.149 226.692 101.976C225.092 100.803 224.185 99.2027 223.972 97.176H228.42C228.654 97.9867 229.156 98.6267 229.924 99.096C230.713 99.5867 231.662 99.832 232.772 99.832C234.073 99.832 235.129 99.4373 235.94 98.648C236.75 97.88 237.156 96.7067 237.156 95.128V92.376C236.58 93.208 235.78 93.9013 234.756 94.456C233.753 95.0107 232.601 95.288 231.3 95.288C229.806 95.288 228.441 94.904 227.204 94.136C225.966 93.368 224.985 92.2907 224.26 90.904C223.556 89.496 223.204 87.8853 223.204 86.072C223.204 84.28 223.556 82.6907 224.26 81.304C224.985 79.9173 225.956 78.8507 227.172 78.104C228.409 77.3573 229.785 76.984 231.3 76.984ZM237.156 86.136C237.156 85.048 236.942 84.12 236.516 83.352C236.089 82.5627 235.513 81.9653 234.788 81.56C234.062 81.1333 233.284 80.92 232.452 80.92C231.62 80.92 230.852 81.1227 230.148 81.528C229.444 81.9333 228.868 82.5307 228.42 83.32C227.993 84.088 227.78 85.0053 227.78 86.072C227.78 87.1387 227.993 88.0773 228.42 88.888C228.868 89.6773 229.444 90.2853 230.148 90.712C230.873 91.1387 231.641 91.352 232.452 91.352C233.284 91.352 234.062 91.1493 234.788 90.744C235.513 90.3173 236.089 89.72 236.516 88.952C236.942 88.1627 237.156 87.224 237.156 86.136ZM267.588 72.664V76.28H261.636V95H257.156V76.28H251.204V72.664H267.588ZM280.201 77.016C281.545 77.016 282.739 77.3147 283.785 77.912C284.83 78.488 285.641 79.352 286.217 80.504C286.814 81.6347 287.113 83 287.113 84.6V95H282.633V85.208C282.633 83.8 282.281 82.7227 281.577 81.976C280.873 81.208 279.913 80.824 278.697 80.824C277.459 80.824 276.478 81.208 275.753 81.976C275.049 82.7227 274.697 83.8 274.697 85.208V95H270.217V71.32H274.697V79.48C275.273 78.712 276.041 78.1147 277.001 77.688C277.961 77.24 279.027 77.016 280.201 77.016ZM307.213 85.752C307.213 86.392 307.17 86.968 307.085 87.48H294.125C294.232 88.76 294.68 89.7627 295.469 90.488C296.258 91.2133 297.229 91.576 298.381 91.576C300.045 91.576 301.229 90.8613 301.933 89.432H306.765C306.253 91.1387 305.272 92.5467 303.821 93.656C302.37 94.744 300.589 95.288 298.477 95.288C296.77 95.288 295.234 94.9147 293.869 94.168C292.525 93.4 291.469 92.3227 290.701 90.936C289.954 89.5493 289.581 87.9493 289.581 86.136C289.581 84.3013 289.954 82.6907 290.701 81.304C291.448 79.9173 292.493 78.8507 293.837 78.104C295.181 77.3573 296.728 76.984 298.477 76.984C300.162 76.984 301.666 77.3467 302.989 78.072C304.333 78.7973 305.368 79.832 306.093 81.176C306.84 82.4987 307.213 84.024 307.213 85.752ZM302.573 84.472C302.552 83.32 302.136 82.4027 301.325 81.72C300.514 81.016 299.522 80.664 298.349 80.664C297.24 80.664 296.301 81.0053 295.533 81.688C294.786 82.3493 294.328 83.2773 294.157 84.472H302.573ZM317.715 95.288C316.008 95.288 314.472 94.9147 313.107 94.168C311.742 93.4 310.664 92.3227 309.875 90.936C309.107 89.5493 308.723 87.9493 308.723 86.136C308.723 84.3227 309.118 82.7227 309.907 81.336C310.718 79.9493 311.816 78.8827 313.203 78.136C314.59 77.368 316.136 76.984 317.843 76.984C319.55 76.984 321.096 77.368 322.483 78.136C323.87 78.8827 324.958 79.9493 325.747 81.336C326.558 82.7227 326.963 84.3227 326.963 86.136C326.963 87.9493 326.547 89.5493 325.715 90.936C324.904 92.3227 323.795 93.4 322.387 94.168C321 94.9147 319.443 95.288 317.715 95.288ZM317.715 91.384C318.526 91.384 319.283 91.192 319.987 90.808C320.712 90.4027 321.288 89.8053 321.715 89.016C322.142 88.2267 322.355 87.2667 322.355 86.136C322.355 84.4507 321.907 83.16 321.011 82.264C320.136 81.3467 319.059 80.888 317.779 80.888C316.499 80.888 315.422 81.3467 314.547 82.264C313.694 83.16 313.267 84.4507 313.267 86.136C313.267 87.8213 313.683 89.1227 314.515 90.04C315.368 90.936 316.435 91.384 317.715 91.384ZM334.089 80.024C334.665 79.0853 335.412 78.3493 336.329 77.816C337.268 77.2827 338.335 77.016 339.529 77.016V81.72H338.345C336.937 81.72 335.871 82.0507 335.145 82.712C334.441 83.3733 334.089 84.5253 334.089 86.168V95H329.609V77.272H334.089V80.024ZM358.867 77.272L347.891 103.384H343.123L346.963 94.552L339.859 77.272H344.883L349.459 89.656L354.099 77.272H358.867Z" fill="#EBEEF5"/>
</g>
<defs>
<filter id="filter0_b_516_334" x="-24" y="-24" width="608" height="192" filterUnits="userSpaceOnUse" color-interpolation-filters="sRGB">
<feFlood flood-opacity="0" result="BackgroundImageFix"/>
<feGaussianBlur in="BackgroundImageFix" stdDeviation="12"/>
<feComposite in2="SourceAlpha" operator="in" result="effect1_backgroundBlur_516_334"/>
<feBlend mode="normal" in="SourceGraphic" in2="effect1_backgroundBlur_516_334" result="shape"/>
</filter>
</defs>
</svg>
