<svg width="560" height="144" viewBox="0 0 560 144" fill="none" xmlns="http://www.w3.org/2000/svg">
<g filter="url(#filter0_b_516_334)">
<rect width="560" height="144" rx="24" fill="#20283E" fill-opacity="0.8"/>
<path d="M49.408 43.696V52H48.316V45.808L45.556 52H44.788L42.016 45.796V52H40.924V43.696H42.1L45.172 50.56L48.244 43.696H49.408ZM50.8519 48.688C50.8519 48.016 50.9879 47.428 51.2599 46.924C51.5319 46.412 51.9039 46.016 52.3759 45.736C52.8559 45.456 53.3879 45.316 53.9719 45.316C54.5479 45.316 55.0479 45.44 55.4719 45.688C55.8959 45.936 56.2119 46.248 56.4199 46.624V45.424H57.5239V52H56.4199V50.776C56.2039 51.16 55.8799 51.48 55.4479 51.736C55.0239 51.984 54.5279 52.108 53.9599 52.108C53.3759 52.108 52.8479 51.964 52.3759 51.676C51.9039 51.388 51.5319 50.984 51.2599 50.464C50.9879 49.944 50.8519 49.352 50.8519 48.688ZM56.4199 48.7C56.4199 48.204 56.3199 47.772 56.1199 47.404C55.9199 47.036 55.6479 46.756 55.3039 46.564C54.9679 46.364 54.5959 46.264 54.1879 46.264C53.7799 46.264 53.4079 46.36 53.0719 46.552C52.7359 46.744 52.4679 47.024 52.2679 47.392C52.0679 47.76 51.9679 48.192 51.9679 48.688C51.9679 49.192 52.0679 49.632 52.2679 50.008C52.4679 50.376 52.7359 50.66 53.0719 50.86C53.4079 51.052 53.7799 51.148 54.1879 51.148C54.5959 51.148 54.9679 51.052 55.3039 50.86C55.6479 50.66 55.9199 50.376 56.1199 50.008C56.3199 49.632 56.4199 49.196 56.4199 48.7ZM59.9333 44.356C59.7253 44.356 59.5493 44.284 59.4053 44.14C59.2613 43.996 59.1893 43.82 59.1893 43.612C59.1893 43.404 59.2613 43.228 59.4053 43.084C59.5493 42.94 59.7253 42.868 59.9333 42.868C60.1333 42.868 60.3013 42.94 60.4373 43.084C60.5813 43.228 60.6533 43.404 60.6533 43.612C60.6533 43.82 60.5813 43.996 60.4373 44.14C60.3013 44.284 60.1333 44.356 59.9333 44.356ZM60.4613 45.424V52H59.3693V45.424H60.4613ZM63.4144 43.12V52H62.3224V43.12H63.4144ZM71.2756 48.46C71.2756 48.668 71.2636 48.888 71.2396 49.12H65.9836C66.0236 49.768 66.2436 50.276 66.6436 50.644C67.0516 51.004 67.5436 51.184 68.1196 51.184C68.5916 51.184 68.9836 51.076 69.2956 50.86C69.6156 50.636 69.8396 50.34 69.9676 49.972H71.1436C70.9676 50.604 70.6156 51.12 70.0876 51.52C69.5596 51.912 68.9036 52.108 68.1196 52.108C67.4956 52.108 66.9356 51.968 66.4396 51.688C65.9516 51.408 65.5676 51.012 65.2876 50.5C65.0076 49.98 64.8676 49.38 64.8676 48.7C64.8676 48.02 65.0036 47.424 65.2756 46.912C65.5476 46.4 65.9276 46.008 66.4156 45.736C66.9116 45.456 67.4796 45.316 68.1196 45.316C68.7436 45.316 69.2956 45.452 69.7756 45.724C70.2556 45.996 70.6236 46.372 70.8796 46.852C71.1436 47.324 71.2756 47.86 71.2756 48.46ZM70.1476 48.232C70.1476 47.816 70.0556 47.46 69.8716 47.164C69.6876 46.86 69.4356 46.632 69.1156 46.48C68.8036 46.32 68.4556 46.24 68.0716 46.24C67.5196 46.24 67.0476 46.416 66.6556 46.768C66.2716 47.12 66.0516 47.608 65.9956 48.232H70.1476ZM79.161 43.636V52H78.069V48.208H73.809V52H72.717V43.636H73.809V47.308H78.069V43.636H79.161ZM87.0256 48.46C87.0256 48.668 87.0136 48.888 86.9896 49.12H81.7336C81.7736 49.768 81.9936 50.276 82.3936 50.644C82.8016 51.004 83.2936 51.184 83.8696 51.184C84.3416 51.184 84.7336 51.076 85.0456 50.86C85.3656 50.636 85.5896 50.34 85.7176 49.972H86.8936C86.7176 50.604 86.3656 51.12 85.8376 51.52C85.3096 51.912 84.6536 52.108 83.8696 52.108C83.2456 52.108 82.6856 51.968 82.1896 51.688C81.7016 51.408 81.3176 51.012 81.0376 50.5C80.7576 49.98 80.6176 49.38 80.6176 48.7C80.6176 48.02 80.7536 47.424 81.0256 46.912C81.2976 46.4 81.6776 46.008 82.1656 45.736C82.6616 45.456 83.2296 45.316 83.8696 45.316C84.4936 45.316 85.0456 45.452 85.5256 45.724C86.0056 45.996 86.3736 46.372 86.6296 46.852C86.8936 47.324 87.0256 47.86 87.0256 48.46ZM85.8976 48.232C85.8976 47.816 85.8056 47.46 85.6216 47.164C85.4376 46.86 85.1856 46.632 84.8656 46.48C84.5536 46.32 84.2056 46.24 83.8216 46.24C83.2696 46.24 82.7976 46.416 82.4056 46.768C82.0216 47.12 81.8016 47.608 81.7456 48.232H85.8976ZM89.559 46.492C89.751 46.116 90.023 45.824 90.375 45.616C90.735 45.408 91.171 45.304 91.683 45.304V46.432H91.395C90.171 46.432 89.559 47.096 89.559 48.424V52H88.467V45.424H89.559V46.492ZM98.9435 48.46C98.9435 48.668 98.9315 48.888 98.9075 49.12H93.6515C93.6915 49.768 93.9115 50.276 94.3115 50.644C94.7195 51.004 95.2115 51.184 95.7875 51.184C96.2595 51.184 96.6515 51.076 96.9635 50.86C97.2835 50.636 97.5075 50.34 97.6355 49.972H98.8115C98.6355 50.604 98.2835 51.12 97.7555 51.52C97.2275 51.912 96.5715 52.108 95.7875 52.108C95.1635 52.108 94.6035 51.968 94.1075 51.688C93.6195 51.408 93.2355 51.012 92.9555 50.5C92.6755 49.98 92.5355 49.38 92.5355 48.7C92.5355 48.02 92.6715 47.424 92.9435 46.912C93.2155 46.4 93.5955 46.008 94.0835 45.736C94.5795 45.456 95.1475 45.316 95.7875 45.316C96.4115 45.316 96.9635 45.452 97.4435 45.724C97.9235 45.996 98.2915 46.372 98.5475 46.852C98.8115 47.324 98.9435 47.86 98.9435 48.46ZM97.8155 48.232C97.8155 47.816 97.7235 47.46 97.5395 47.164C97.3555 46.86 97.1035 46.632 96.7835 46.48C96.4715 46.32 96.1235 46.24 95.7395 46.24C95.1875 46.24 94.7155 46.416 94.3235 46.768C93.9395 47.12 93.7195 47.608 93.6635 48.232H97.8155ZM104.057 52L101.477 49.096V52H100.385V43.12H101.477V48.34L104.009 45.424H105.533L102.437 48.7L105.545 52H104.057ZM109.429 52.108C108.813 52.108 108.253 51.968 107.749 51.688C107.253 51.408 106.861 51.012 106.573 50.5C106.293 49.98 106.153 49.38 106.153 48.7C106.153 48.028 106.297 47.436 106.585 46.924C106.881 46.404 107.281 46.008 107.785 45.736C108.289 45.456 108.853 45.316 109.477 45.316C110.101 45.316 110.665 45.456 111.169 45.736C111.673 46.008 112.069 46.4 112.357 46.912C112.653 47.424 112.801 48.02 112.801 48.7C112.801 49.38 112.649 49.98 112.345 50.5C112.049 51.012 111.645 51.408 111.133 51.688C110.621 51.968 110.053 52.108 109.429 52.108ZM109.429 51.148C109.821 51.148 110.189 51.056 110.533 50.872C110.877 50.688 111.153 50.412 111.361 50.044C111.577 49.676 111.685 49.228 111.685 48.7C111.685 48.172 111.581 47.724 111.373 47.356C111.165 46.988 110.893 46.716 110.557 46.54C110.221 46.356 109.857 46.264 109.465 46.264C109.065 46.264 108.697 46.356 108.361 46.54C108.033 46.716 107.769 46.988 107.569 47.356C107.369 47.724 107.269 48.172 107.269 48.7C107.269 49.236 107.365 49.688 107.557 50.056C107.757 50.424 108.021 50.7 108.349 50.884C108.677 51.06 109.037 51.148 109.429 51.148Z" fill="#BEB7FB"/>
<path d="M122.024 53.48H123.068L127.124 43.58H126.08L122.024 53.48Z" fill="#8996A2"/>
<path d="M145.408 43.696V52H144.316V45.808L141.556 52H140.788L138.016 45.796V52H136.924V43.696H138.1L141.172 50.56L144.244 43.696H145.408ZM150.128 52.108C149.512 52.108 148.952 51.968 148.448 51.688C147.952 51.408 147.56 51.012 147.272 50.5C146.992 49.98 146.852 49.38 146.852 48.7C146.852 48.028 146.996 47.436 147.284 46.924C147.58 46.404 147.98 46.008 148.484 45.736C148.988 45.456 149.552 45.316 150.176 45.316C150.8 45.316 151.364 45.456 151.868 45.736C152.372 46.008 152.768 46.4 153.056 46.912C153.352 47.424 153.5 48.02 153.5 48.7C153.5 49.38 153.348 49.98 153.044 50.5C152.748 51.012 152.344 51.408 151.832 51.688C151.32 51.968 150.752 52.108 150.128 52.108ZM150.128 51.148C150.52 51.148 150.888 51.056 151.232 50.872C151.576 50.688 151.852 50.412 152.06 50.044C152.276 49.676 152.384 49.228 152.384 48.7C152.384 48.172 152.28 47.724 152.072 47.356C151.864 46.988 151.592 46.716 151.256 46.54C150.92 46.356 150.556 46.264 150.164 46.264C149.764 46.264 149.396 46.356 149.06 46.54C148.732 46.716 148.468 46.988 148.268 47.356C148.068 47.724 147.968 48.172 147.968 48.7C147.968 49.236 148.064 49.688 148.256 50.056C148.456 50.424 148.72 50.7 149.048 50.884C149.376 51.06 149.736 51.148 150.128 51.148ZM157.384 50.992L159.424 45.424H160.588L158.008 52H156.736L154.156 45.424H155.332L157.384 50.992ZM162.226 44.356C162.018 44.356 161.842 44.284 161.698 44.14C161.554 43.996 161.482 43.82 161.482 43.612C161.482 43.404 161.554 43.228 161.698 43.084C161.842 42.94 162.018 42.868 162.226 42.868C162.426 42.868 162.594 42.94 162.73 43.084C162.874 43.228 162.946 43.404 162.946 43.612C162.946 43.82 162.874 43.996 162.73 44.14C162.594 44.284 162.426 44.356 162.226 44.356ZM162.754 45.424V52H161.662V45.424H162.754ZM170.615 48.46C170.615 48.668 170.603 48.888 170.579 49.12H165.323C165.363 49.768 165.583 50.276 165.983 50.644C166.391 51.004 166.883 51.184 167.459 51.184C167.931 51.184 168.323 51.076 168.635 50.86C168.955 50.636 169.179 50.34 169.307 49.972H170.483C170.307 50.604 169.955 51.12 169.427 51.52C168.899 51.912 168.243 52.108 167.459 52.108C166.835 52.108 166.275 51.968 165.779 51.688C165.291 51.408 164.907 51.012 164.627 50.5C164.347 49.98 164.207 49.38 164.207 48.7C164.207 48.02 164.343 47.424 164.615 46.912C164.887 46.4 165.267 46.008 165.755 45.736C166.251 45.456 166.819 45.316 167.459 45.316C168.083 45.316 168.635 45.452 169.115 45.724C169.595 45.996 169.963 46.372 170.219 46.852C170.483 47.324 170.615 47.86 170.615 48.46ZM169.487 48.232C169.487 47.816 169.395 47.46 169.211 47.164C169.027 46.86 168.775 46.632 168.455 46.48C168.143 46.32 167.795 46.24 167.411 46.24C166.859 46.24 166.387 46.416 165.995 46.768C165.611 47.12 165.391 47.608 165.335 48.232H169.487ZM174.385 52.108C173.881 52.108 173.429 52.024 173.029 51.856C172.629 51.68 172.313 51.44 172.081 51.136C171.849 50.824 171.721 50.468 171.697 50.068H172.825C172.857 50.396 173.009 50.664 173.281 50.872C173.561 51.08 173.925 51.184 174.373 51.184C174.789 51.184 175.117 51.092 175.357 50.908C175.597 50.724 175.717 50.492 175.717 50.212C175.717 49.924 175.589 49.712 175.333 49.576C175.077 49.432 174.681 49.292 174.145 49.156C173.657 49.028 173.257 48.9 172.945 48.772C172.641 48.636 172.377 48.44 172.153 48.184C171.937 47.92 171.829 47.576 171.829 47.152C171.829 46.816 171.929 46.508 172.129 46.228C172.329 45.948 172.613 45.728 172.981 45.568C173.349 45.4 173.769 45.316 174.241 45.316C174.969 45.316 175.557 45.5 176.005 45.868C176.453 46.236 176.693 46.74 176.725 47.38H175.633C175.609 47.036 175.469 46.76 175.213 46.552C174.965 46.344 174.629 46.24 174.205 46.24C173.813 46.24 173.501 46.324 173.269 46.492C173.037 46.66 172.921 46.88 172.921 47.152C172.921 47.368 172.989 47.548 173.125 47.692C173.269 47.828 173.445 47.94 173.653 48.028C173.869 48.108 174.165 48.2 174.541 48.304C175.013 48.432 175.397 48.56 175.693 48.688C175.989 48.808 176.241 48.992 176.449 49.24C176.665 49.488 176.777 49.812 176.785 50.212C176.785 50.572 176.685 50.896 176.485 51.184C176.285 51.472 176.001 51.7 175.633 51.868C175.273 52.028 174.857 52.108 174.385 52.108Z" fill="#BEB7FB"/>
<path d="M57.408 72.664V76.28H51.456V95H46.976V76.28H41.024V72.664H57.408ZM84.6128 77.272L79.4288 95H74.5968L71.3648 82.616L68.1328 95H63.2688L58.0528 77.272H62.5968L65.7328 90.776L69.1248 77.272H73.8608L77.1888 90.744L80.3248 77.272H84.6128ZM94.2688 95.288C92.5621 95.288 91.0261 94.9147 89.6608 94.168C88.2954 93.4 87.2181 92.3227 86.4288 90.936C85.6608 89.5493 85.2768 87.9493 85.2768 86.136C85.2768 84.3227 85.6714 82.7227 86.4608 81.336C87.2714 79.9493 88.3701 78.8827 89.7568 78.136C91.1434 77.368 92.6901 76.984 94.3968 76.984C96.1034 76.984 97.6501 77.368 99.0368 78.136C100.423 78.8827 101.511 79.9493 102.301 81.336C103.111 82.7227 103.517 84.3227 103.517 86.136C103.517 87.9493 103.101 89.5493 102.269 90.936C101.458 92.3227 100.349 93.4 98.9408 94.168C97.5541 94.9147 95.9968 95.288 94.2688 95.288ZM94.2688 91.384C95.0794 91.384 95.8368 91.192 96.5408 90.808C97.2661 90.4027 97.8421 89.8053 98.2688 89.016C98.6954 88.2267 98.9088 87.2667 98.9088 86.136C98.9088 84.4507 98.4608 83.16 97.5648 82.264C96.6901 81.3467 95.6128 80.888 94.3328 80.888C93.0528 80.888 91.9754 81.3467 91.1008 82.264C90.2474 83.16 89.8208 84.4507 89.8208 86.136C89.8208 87.8213 90.2368 89.1227 91.0688 90.04C91.9221 90.936 92.9888 91.384 94.2688 91.384ZM126.844 90.744H117.948L116.476 95H111.772L119.804 72.632H125.02L133.052 95H128.316L126.844 90.744ZM125.628 87.16L122.396 77.816L119.164 87.16H125.628ZM145.238 77.016C147.35 77.016 149.057 77.688 150.358 79.032C151.66 80.3547 152.31 82.2107 152.31 84.6V95H147.83V85.208C147.83 83.8 147.478 82.7227 146.774 81.976C146.07 81.208 145.11 80.824 143.894 80.824C142.657 80.824 141.676 81.208 140.95 81.976C140.246 82.7227 139.894 83.8 139.894 85.208V95H135.414V77.272H139.894V79.48C140.492 78.712 141.249 78.1147 142.166 77.688C143.105 77.24 144.129 77.016 145.238 77.016ZM154.779 86.072C154.779 84.28 155.131 82.6907 155.835 81.304C156.56 79.9173 157.541 78.8507 158.779 78.104C160.016 77.3573 161.392 76.984 162.907 76.984C164.059 76.984 165.157 77.24 166.203 77.752C167.248 78.2427 168.08 78.904 168.699 79.736V71.32H173.243V95H168.699V92.376C168.144 93.2507 167.365 93.9547 166.363 94.488C165.36 95.0213 164.197 95.288 162.875 95.288C161.381 95.288 160.016 94.904 158.779 94.136C157.541 93.368 156.56 92.2907 155.835 90.904C155.131 89.496 154.779 87.8853 154.779 86.072ZM168.731 86.136C168.731 85.048 168.517 84.12 168.091 83.352C167.664 82.5627 167.088 81.9653 166.363 81.56C165.637 81.1333 164.859 80.92 164.027 80.92C163.195 80.92 162.427 81.1227 161.723 81.528C161.019 81.9333 160.443 82.5307 159.995 83.32C159.568 84.088 159.355 85.0053 159.355 86.072C159.355 87.1387 159.568 88.0773 159.995 88.888C160.443 89.6773 161.019 90.2853 161.723 90.712C162.448 91.1387 163.216 91.352 164.027 91.352C164.859 91.352 165.637 91.1493 166.363 90.744C167.088 90.3173 167.664 89.72 168.091 88.952C168.517 88.1627 168.731 87.224 168.731 86.136ZM182.811 86.072C182.811 84.28 183.163 82.6907 183.867 81.304C184.592 79.9173 185.563 78.8507 186.779 78.104C188.016 77.3573 189.392 76.984 190.907 76.984C192.23 76.984 193.382 77.2507 194.363 77.784C195.366 78.3173 196.166 78.9893 196.763 79.8V77.272H201.275V95H196.763V92.408C196.187 93.24 195.387 93.9333 194.363 94.488C193.36 95.0213 192.198 95.288 190.875 95.288C189.382 95.288 188.016 94.904 186.779 94.136C185.563 93.368 184.592 92.2907 183.867 90.904C183.163 89.496 182.811 87.8853 182.811 86.072ZM196.763 86.136C196.763 85.048 196.55 84.12 196.123 83.352C195.696 82.5627 195.12 81.9653 194.395 81.56C193.67 81.1333 192.891 80.92 192.059 80.92C191.227 80.92 190.459 81.1227 189.755 81.528C189.051 81.9333 188.475 82.5307 188.027 83.32C187.6 84.088 187.387 85.0053 187.387 86.072C187.387 87.1387 187.6 88.0773 188.027 88.888C188.475 89.6773 189.051 90.2853 189.755 90.712C190.48 91.1387 191.248 91.352 192.059 91.352C192.891 91.352 193.67 91.1493 194.395 90.744C195.12 90.3173 195.696 89.72 196.123 88.952C196.55 88.1627 196.763 87.224 196.763 86.136ZM230.524 72.664V95H226.044V85.496H216.476V95H211.996V72.664H216.476V81.848H226.044V72.664H230.524ZM233.141 86.072C233.141 84.28 233.493 82.6907 234.197 81.304C234.922 79.9173 235.893 78.8507 237.109 78.104C238.346 77.3573 239.722 76.984 241.237 76.984C242.56 76.984 243.712 77.2507 244.693 77.784C245.696 78.3173 246.496 78.9893 247.093 79.8V77.272H251.605V95H247.093V92.408C246.517 93.24 245.717 93.9333 244.693 94.488C243.69 95.0213 242.528 95.288 241.205 95.288C239.712 95.288 238.346 94.904 237.109 94.136C235.893 93.368 234.922 92.2907 234.197 90.904C233.493 89.496 233.141 87.8853 233.141 86.072ZM247.093 86.136C247.093 85.048 246.88 84.12 246.453 83.352C246.026 82.5627 245.45 81.9653 244.725 81.56C244 81.1333 243.221 80.92 242.389 80.92C241.557 80.92 240.789 81.1227 240.085 81.528C239.381 81.9333 238.805 82.5307 238.357 83.32C237.93 84.088 237.717 85.0053 237.717 86.072C237.717 87.1387 237.93 88.0773 238.357 88.888C238.805 89.6773 239.381 90.2853 240.085 90.712C240.81 91.1387 241.578 91.352 242.389 91.352C243.221 91.352 244 91.1493 244.725 90.744C245.45 90.3173 246.026 89.72 246.453 88.952C246.88 88.1627 247.093 87.224 247.093 86.136ZM259.821 71.32V95H255.341V71.32H259.821ZM271.735 80.952H268.631V95H264.087V80.952H262.071V77.272H264.087V76.376C264.087 74.2 264.705 72.6 265.943 71.576C267.18 70.552 269.047 70.072 271.543 70.136V73.912C270.455 73.8907 269.697 74.072 269.271 74.456C268.844 74.84 268.631 75.5333 268.631 76.536V77.272H271.735V80.952ZM305.335 72.664V95H300.855V80.472L294.871 95H291.479L285.463 80.472V95H280.983V72.664H286.071L293.175 89.272L300.279 72.664H305.335ZM325.604 85.752C325.604 86.392 325.562 86.968 325.476 87.48H312.516C312.623 88.76 313.071 89.7627 313.86 90.488C314.65 91.2133 315.62 91.576 316.772 91.576C318.436 91.576 319.62 90.8613 320.324 89.432H325.156C324.644 91.1387 323.663 92.5467 322.212 93.656C320.762 94.744 318.98 95.288 316.868 95.288C315.162 95.288 313.626 94.9147 312.26 94.168C310.916 93.4 309.86 92.3227 309.092 90.936C308.346 89.5493 307.972 87.9493 307.972 86.136C307.972 84.3013 308.346 82.6907 309.092 81.304C309.839 79.9173 310.884 78.8507 312.228 78.104C313.572 77.3573 315.119 76.984 316.868 76.984C318.554 76.984 320.058 77.3467 321.38 78.072C322.724 78.7973 323.759 79.832 324.484 81.176C325.231 82.4987 325.604 84.024 325.604 85.752ZM320.964 84.472C320.943 83.32 320.527 82.4027 319.716 81.72C318.906 81.016 317.914 80.664 316.74 80.664C315.631 80.664 314.692 81.0053 313.924 81.688C313.178 82.3493 312.719 83.2773 312.548 84.472H320.964ZM338.058 77.016C340.17 77.016 341.877 77.688 343.178 79.032C344.48 80.3547 345.13 82.2107 345.13 84.6V95H340.65V85.208C340.65 83.8 340.298 82.7227 339.594 81.976C338.89 81.208 337.93 80.824 336.714 80.824C335.477 80.824 334.496 81.208 333.77 81.976C333.066 82.7227 332.714 83.8 332.714 85.208V95H328.234V77.272H332.714V79.48C333.312 78.712 334.069 78.1147 334.986 77.688C335.925 77.24 336.949 77.016 338.058 77.016Z" fill="#EBEEF5"/>
</g>
<defs>
<filter id="filter0_b_516_334" x="-24" y="-24" width="608" height="192" filterUnits="userSpaceOnUse" color-interpolation-filters="sRGB">
<feFlood flood-opacity="0" result="BackgroundImageFix"/>
<feGaussianBlur in="BackgroundImageFix" stdDeviation="12"/>
<feComposite in2="SourceAlpha" operator="in" result="effect1_backgroundBlur_516_334"/>
<feBlend mode="normal" in="SourceGraphic" in2="effect1_backgroundBlur_516_334" result="shape"/>
</filter>
</defs>
</svg>
