<svg width="184" height="54" viewBox="0 0 184 54" fill="none" xmlns="http://www.w3.org/2000/svg">
<rect x="1" y="1" width="182" height="52" rx="19" fill="#7B6EF6"/>
<path d="M80.748 21.848L77.516 33H75.884L73.292 24.024L70.604 33L68.988 33.016L65.868 21.848H67.42L69.852 31.304L72.54 21.848H74.172L76.732 31.272L79.18 21.848H80.748ZM81.7974 28.584C81.7974 27.688 81.9787 26.904 82.3414 26.232C82.704 25.5493 83.2 25.0213 83.8294 24.648C84.4694 24.2747 85.1787 24.088 85.9574 24.088C86.7254 24.088 87.392 24.2533 87.9574 24.584C88.5227 24.9147 88.944 25.3307 89.2214 25.832V24.232H90.6934V33H89.2214V31.368C88.9334 31.88 88.5014 32.3067 87.9254 32.648C87.36 32.9787 86.6987 33.144 85.9414 33.144C85.1627 33.144 84.4587 32.952 83.8294 32.568C83.2 32.184 82.704 31.6453 82.3414 30.952C81.9787 30.2587 81.7974 29.4693 81.7974 28.584ZM89.2214 28.6C89.2214 27.9387 89.088 27.3627 88.8214 26.872C88.5547 26.3813 88.192 26.008 87.7334 25.752C87.2854 25.4853 86.7894 25.352 86.2454 25.352C85.7014 25.352 85.2054 25.48 84.7574 25.736C84.3094 25.992 83.952 26.3653 83.6854 26.856C83.4187 27.3467 83.2854 27.9227 83.2854 28.584C83.2854 29.256 83.4187 29.8427 83.6854 30.344C83.952 30.8347 84.3094 31.2133 84.7574 31.48C85.2054 31.736 85.7014 31.864 86.2454 31.864C86.7894 31.864 87.2854 31.736 87.7334 31.48C88.192 31.2133 88.5547 30.8347 88.8214 30.344C89.088 29.8427 89.2214 29.2613 89.2214 28.6ZM94.9299 25.432V30.6C94.9299 31.0267 95.0205 31.3307 95.2019 31.512C95.3832 31.6827 95.6979 31.768 96.1459 31.768H97.2179V33H95.9059C95.0952 33 94.4872 32.8133 94.0819 32.44C93.6765 32.0667 93.4739 31.4533 93.4739 30.6V25.432H92.3379V24.232H93.4739V22.024H94.9299V24.232H97.2179V25.432H94.9299ZM98.438 28.6C98.438 27.6933 98.6193 26.904 98.982 26.232C99.3447 25.5493 99.846 25.0213 100.486 24.648C101.137 24.2747 101.878 24.088 102.71 24.088C103.787 24.088 104.673 24.3493 105.366 24.872C106.07 25.3947 106.534 26.12 106.758 27.048H105.19C105.041 26.5147 104.747 26.0933 104.31 25.784C103.883 25.4747 103.35 25.32 102.71 25.32C101.878 25.32 101.206 25.608 100.694 26.184C100.182 26.7493 99.926 27.5547 99.926 28.6C99.926 29.656 100.182 30.472 100.694 31.048C101.206 31.624 101.878 31.912 102.71 31.912C103.35 31.912 103.883 31.7627 104.31 31.464C104.737 31.1653 105.03 30.7387 105.19 30.184H106.758C106.523 31.08 106.054 31.8 105.35 32.344C104.646 32.8773 103.766 33.144 102.71 33.144C101.878 33.144 101.137 32.9573 100.486 32.584C99.846 32.2107 99.3447 31.6827 98.982 31C98.6193 30.3173 98.438 29.5173 98.438 28.6ZM113.053 24.072C113.714 24.072 114.311 24.216 114.845 24.504C115.378 24.7813 115.794 25.2027 116.093 25.768C116.402 26.3333 116.557 27.0213 116.557 27.832V33H115.117V28.04C115.117 27.1653 114.898 26.4987 114.461 26.04C114.023 25.5707 113.426 25.336 112.669 25.336C111.901 25.336 111.287 25.576 110.829 26.056C110.381 26.536 110.157 27.2347 110.157 28.152V33H108.701V21.16H110.157V25.48C110.445 25.032 110.839 24.6853 111.341 24.44C111.853 24.1947 112.423 24.072 113.053 24.072Z" fill="white"/>
<rect x="1" y="1" width="182" height="52" rx="19" stroke="#7B6EF6" stroke-width="2"/>
</svg>
